<svg width="74" height="74" viewBox="0 0 74 74" fill="none" xmlns="http://www.w3.org/2000/svg">
<path d="M21.2129 58.2753C19.9487 58.2753 18.9004 57.227 18.9004 55.9628V49.5803C18.9004 48.3162 19.9487 47.2678 21.2129 47.2678C22.4771 47.2678 23.5254 48.3162 23.5254 49.5803V55.9628C23.5254 57.2578 22.4771 58.2753 21.2129 58.2753Z" fill="#2EAC6D"/>
<path d="M37 58.2753C35.7358 58.2753 34.6875 57.227 34.6875 55.9628V43.167C34.6875 41.9028 35.7358 40.8545 37 40.8545C38.2642 40.8545 39.3125 41.9028 39.3125 43.167V55.9628C39.3125 57.2578 38.2642 58.2753 37 58.2753Z" fill="#2EAC6D"/>
<path d="M52.7871 58.274C51.5229 58.274 50.4746 57.2257 50.4746 55.9615V36.7832C50.4746 35.519 51.5229 34.4707 52.7871 34.4707C54.0513 34.4707 55.0996 35.519 55.0996 36.7832V55.9615C55.0996 57.2565 54.0821 58.274 52.7871 58.274Z" fill="#2EAC6D"/>
<path d="M21.2112 40.6393C20.1629 40.6393 19.2379 39.9302 18.9604 38.8818C18.6521 37.6485 19.3921 36.3843 20.6562 36.076C32.0029 33.2393 41.9929 27.0418 49.6087 18.1927L51.0271 16.5277C51.8596 15.5718 53.3087 15.4485 54.2954 16.281C55.2512 17.1135 55.3746 18.5627 54.5421 19.5493L53.1237 21.2143C44.8912 30.8343 34.0379 37.5252 21.7662 40.5777C21.5812 40.6393 21.3962 40.6393 21.2112 40.6393Z" fill="#2EAC6D"/>
<path d="M52.7881 29.3522C51.5239 29.3522 50.4756 28.3039 50.4756 27.0397V20.3489H43.7539C42.4897 20.3489 41.4414 19.3005 41.4414 18.0364C41.4414 16.7722 42.4897 15.7239 43.7539 15.7239H52.7881C54.0522 15.7239 55.1006 16.7722 55.1006 18.0364V27.0705C55.1006 28.3347 54.0831 29.3522 52.7881 29.3522Z" fill="#2EAC6D"/>
<path d="M46.2493 70.1462H27.7493C11.0068 70.1462 3.85352 62.9928 3.85352 46.2503V27.7503C3.85352 11.0078 11.0068 3.85449 27.7493 3.85449H46.2493C62.9918 3.85449 70.1452 11.0078 70.1452 27.7503V46.2503C70.1452 62.9928 62.9918 70.1462 46.2493 70.1462ZM27.7493 8.47949C13.5352 8.47949 8.47852 13.5362 8.47852 27.7503V46.2503C8.47852 60.4645 13.5352 65.5212 27.7493 65.5212H46.2493C60.4635 65.5212 65.5202 60.4645 65.5202 46.2503V27.7503C65.5202 13.5362 60.4635 8.47949 46.2493 8.47949H27.7493Z" fill="#2EAC6D"/>
</svg>
