<svg width="43" height="26" viewBox="0 0 43 26" fill="none" xmlns="http://www.w3.org/2000/svg">
<path d="M21.459 25.106H21.4C16.615 25.09 11.463 23.089 6.5 19.322C4.26907 17.6401 2.22684 15.7216 0.409 13.6L0 13.1L0.388 12.581C2.19838 10.2726 4.25298 8.16675 6.516 6.3C11.489 2.177 16.646 0 21.431 0H21.486C26.286 0.016 31.448 2.229 36.412 6.4C38.6636 8.28136 40.7049 10.4011 42.5 12.722L42.884 13.244L42.471 13.744C40.6383 15.8537 38.5823 17.7585 36.339 19.425C31.37 23.142 26.228 25.106 21.459 25.106ZM2.134 13.05C4.047 15.186 12.025 23.413 21.4 23.444H21.456C30.825 23.444 38.82 15.304 40.742 13.184C38.88 10.871 30.881 1.694 21.48 1.662H21.43C12.039 1.662 4.011 10.753 2.134 13.05Z" fill="#2EAC6D"/>
<path d="M21.4678 4.03899C19.7838 4.03307 18.136 4.52664 16.7325 5.45727C15.3291 6.38791 14.2332 7.71382 13.5833 9.26733C12.9335 10.8208 12.7589 12.5322 13.0817 14.1849C13.4045 15.8376 14.2101 17.3575 15.3967 18.5524C16.5833 19.7472 18.0976 20.5633 19.748 20.8976C21.3985 21.2318 23.111 21.0691 24.6689 20.43C26.2269 19.7909 27.5604 18.7042 28.5007 17.3073C29.4411 15.9103 29.946 14.2659 29.9518 12.582C29.9595 10.3241 29.07 8.15563 27.479 6.55353C25.8879 4.95143 23.7257 4.04694 21.4678 4.03899ZM21.4248 16.839C20.5766 16.8366 19.7481 16.5827 19.0442 16.1094C18.3403 15.6362 17.7926 14.9648 17.4703 14.1802C17.1481 13.3955 17.0658 12.533 17.2338 11.7016C17.4018 10.8702 17.8126 10.1073 18.4143 9.5094C19.016 8.91152 19.7814 8.5055 20.6139 8.34272C21.4463 8.17993 22.3083 8.26769 23.0909 8.59489C23.8735 8.92209 24.5414 9.47402 25.0102 10.1809C25.4791 10.8878 25.7277 11.7178 25.7248 12.566C25.7205 13.7026 25.2653 14.7911 24.459 15.5923C23.6528 16.3935 22.5614 16.8419 21.4248 16.839Z" fill="#2EAC6D"/>
</svg>
