<svg width="40" height="40" viewBox="0 0 40 40" fill="none" xmlns="http://www.w3.org/2000/svg">
<path d="M23.7218 36.0321C32.6214 33.9313 38.1329 25.0137 36.0321 16.1142C33.9313 7.21458 25.0137 1.7031 16.1141 3.80392C7.21453 5.90474 1.70305 14.8223 3.80387 23.7219C5.90469 32.6215 14.8223 38.133 23.7218 36.0321Z" stroke="#2EAC6D" stroke-width="1.5"/>
<path d="M19.9953 10.6434C21.1768 10.6427 22.3303 11.0031 23.3012 11.6763C24.2721 12.3496 25.0141 13.3035 25.4277 14.4103C25.8412 15.5171 25.9066 16.7238 25.6151 17.8688C25.3236 19.0138 24.6891 20.0423 23.7966 20.8166C23.0083 21.5009 22.4627 22.4221 22.2415 23.4423H17.7545C17.5508 22.435 17.0182 21.524 16.2405 20.8522C15.3806 20.1201 14.7532 19.1528 14.4356 18.069C14.1179 16.9852 14.1238 15.8323 14.4524 14.7518C14.7811 13.6713 15.4182 12.7103 16.2855 11.987C17.1529 11.2636 18.2126 10.8094 19.3345 10.6801C19.554 10.656 19.7745 10.6438 19.9953 10.6434ZM19.9953 9.61707C19.7351 9.61715 19.4752 9.6316 19.2166 9.66033C17.8955 9.81159 16.6474 10.3456 15.6257 11.1968C14.604 12.0479 13.8533 13.179 13.4659 14.4511C13.0785 15.7232 13.0712 17.0808 13.4451 18.3569C13.8189 19.633 14.5575 20.7721 15.57 21.6341C15.9728 21.9876 16.2942 22.424 16.5122 22.9135C16.7303 23.403 16.8398 23.9339 16.8331 24.4697H23.1574C23.1575 23.9244 23.2747 23.3855 23.501 22.8894C23.7273 22.3933 24.0575 21.9516 24.4692 21.5941C25.5206 20.683 26.2683 19.4722 26.6119 18.1241C26.9556 16.776 26.8789 15.355 26.3921 14.0517C25.9053 12.7484 25.0316 11.6252 23.8882 10.8325C22.7449 10.0399 21.3865 9.61578 19.9953 9.61707Z" fill="#2EAC6D"/>
<path d="M16.526 26.0572H23.4656C23.5423 26.0682 23.6204 26.0625 23.6947 26.0406C23.769 26.0187 23.8378 25.9811 23.8963 25.9304C23.9548 25.8796 24.0017 25.8169 24.0338 25.7464C24.066 25.6759 24.0826 25.5994 24.0826 25.5219C24.0826 25.4445 24.066 25.3679 24.0338 25.2975C24.0017 25.227 23.9548 25.1643 23.8963 25.1135C23.8378 25.0627 23.769 25.0251 23.6947 25.0032C23.6204 24.9814 23.5423 24.9757 23.4656 24.9866H16.526C16.3971 25.005 16.2791 25.0692 16.1938 25.1676C16.1085 25.2659 16.0615 25.3917 16.0615 25.5219C16.0615 25.6521 16.1085 25.7779 16.1938 25.8763C16.2791 25.9746 16.3971 26.0389 16.526 26.0572Z" fill="#2EAC6D"/>
<path d="M23.4656 26.5752H16.526C16.3971 26.5936 16.2791 26.6579 16.1938 26.7562C16.1085 26.8545 16.0615 26.9804 16.0615 27.1105C16.0615 27.2407 16.1085 27.3666 16.1938 27.4649C16.2791 27.5632 16.3971 27.6275 16.526 27.6459H23.4656C23.5423 27.6568 23.6204 27.6511 23.6947 27.6292C23.769 27.6073 23.8378 27.5697 23.8963 27.519C23.9548 27.4682 24.0017 27.4055 24.0338 27.335C24.066 27.2646 24.0826 27.188 24.0826 27.1105C24.0826 27.0331 24.066 26.9565 24.0338 26.8861C24.0017 26.8156 23.9548 26.7529 23.8963 26.7021C23.8378 26.6514 23.769 26.6138 23.6947 26.5919C23.6204 26.57 23.5423 26.5643 23.4656 26.5752Z" fill="#2EAC6D"/>
<path d="M17.0107 28.1899C17.2248 28.8064 17.6293 29.3389 18.1658 29.7104C18.7024 30.0819 19.3432 30.2732 19.9955 30.2566C20.6479 30.2732 21.2887 30.0819 21.8252 29.7104C22.3618 29.3389 22.7663 28.8064 22.9803 28.1899H17.0107Z" fill="#2EAC6D"/>
</svg>
