<svg xmlns="http://www.w3.org/2000/svg" viewBox="0 0 141.76 140.66"><defs><linearGradient id="linear-gradient" x1="99.5" y1="125.83" x2="97.29" y2="-2.3" gradientTransform="matrix(1 0 0 -1 0 166.9)" gradientUnits="userSpaceOnUse"><stop offset="0" stop-color="#fff" stop-opacity="0"/><stop offset="1" stop-color="#2eac6d"/></linearGradient><clipPath id="clip-path" transform="translate(-28.83 -23.34)"><path transform="rotate(-.12 85.864 76.484)" style="fill:none" d="M11.85.23h158.67v158.24H11.85z"/></clipPath><style>.cls-11,.cls-3{isolation:isolate}.cls-3{opacity:.15}.cls-5{fill:#ebebeb}.cls-6{fill:#f0f0f0}.cls-7{fill:#f5f5f5}.cls-8{fill:#fff}.cls-9{fill:#e0e0e0}.cls-10{fill:#ffcb3c}.cls-11{opacity:.2}.cls-14{fill:#efc7b1}.cls-15{fill:#5e1816}.cls-16{fill:#460702}.cls-17{fill:#f1f2f2}.cls-18,.cls-22,.cls-23{fill:#d8d8d8;mix-blend-mode:multiply}.cls-18{opacity:.64}.cls-19{fill:#e6d9d5}.cls-22{opacity:.36}.cls-23{opacity:.53}.cls-24{fill:#554b50}.cls-25{fill:#423a3e}</style></defs><g style="isolation:isolate"><g id="Layer_1" data-name="Layer 1"><path class="cls-3" d="M80.77 160c.9.2 1.8.37 2.72.52 0-.86.13-1.72.24-2.59zM78.24 109.12c1 .21 1.93.4 2.91.56 0-.92.14-1.85.27-2.77z" transform="translate(-28.83 -23.34)"/><g style="clip-path:url(#clip-path)"><path class="cls-5" d="m170.59 115.89-141.76.28v.07l141.76-.24zM156.39 118.61h-25.77v.07h25.77zM122.74 117.91h-7.06v.09h7.06zM138.87 121.27h-10.94v.07h10.94zM50.13 121h-6.42v.07h6.42zM60.28 121h-7.63 7.63zM92.67 119.69H79.39v.07h13.28zM96 103.43l-54.75.11a1.62 1.62 0 0 1-1.62-1.61l-.15-76.75a1.59 1.59 0 0 1 .52-1.13 1.61 1.61 0 0 1 1.14-.47l54.74-.12a1.62 1.62 0 0 1 1.62 1.62l.16 76.73a1.62 1.62 0 0 1-1.66 1.62zm-54.91-79.8a1.55 1.55 0 0 0-1.54 1.55l.15 76.75a1.55 1.55 0 0 0 1.55 1.54l54.75-.11a1.59 1.59 0 0 0 1.09-.46 1.54 1.54 0 0 0 .45-1.09l-.16-76.75a1.54 1.54 0 0 0-.45-1.06 1.56 1.56 0 0 0-1.1-.45zM157.32 103.3l-54.75.11a1.62 1.62 0 0 1-1.57-1.61l-.15-76.74a1.61 1.61 0 0 1 .47-1.14 1.63 1.63 0 0 1 1.14-.47l54.75-.11a1.65 1.65 0 0 1 1.14.47 1.59 1.59 0 0 1 .47 1.13l.16 76.74a1.65 1.65 0 0 1-.47 1.15 1.61 1.61 0 0 1-1.19.47zm-54.91-79.79a1.54 1.54 0 0 0-1.09.45 1.55 1.55 0 0 0-.45 1.09l.13 76.75a1.59 1.59 0 0 0 .46 1.09 1.54 1.54 0 0 0 1.09.45l54.75-.11a1.54 1.54 0 0 0 1.09-.45 1.57 1.57 0 0 0 .46-1.1l-.16-76.74a1.55 1.55 0 0 0-1.55-1.54z" transform="translate(-28.83 -23.34)"/><path class="cls-6" d="m43.7 116.14 33.9-.07-.16-74.76-33.89.07z" transform="translate(-28.83 -23.34)"/><path class="cls-7" d="m43.7 116.14 32.3-.07-.15-74.76-32.29.07z" transform="translate(-28.83 -23.34)"/><path class="cls-6" d="M74.29 114.38 74.14 43H45.25l.15 71.37z" transform="translate(-28.83 -23.34)"/><path class="cls-8" d="M54.65 76.71h-5.88A.75.75 0 0 1 48 76a.75.75 0 0 1 .75-.75h5.89a.75.75 0 0 1 .54 1.28.81.81 0 0 1-.53.18z" transform="translate(-28.83 -23.34)"/><path class="cls-6" d="m45.84 114.44-.14-71.37h-.45l.15 71.37zM93.47 114.62h5V92.79h-5zM72.67 116.05h24.88v-1.38H72.66z" transform="translate(-28.83 -23.34)"/><path class="cls-7" d="M93.43 92.8H71.65v21.83h21.77z" transform="translate(-28.83 -23.34)"/><path class="cls-6" d="M91.45 95.49H73.64v7.16h17.81zM91.47 104.78H73.66V112h17.81z" transform="translate(-28.83 -23.34)"/><path class="cls-7" d="M80.55 96.11h4a.48.48 0 0 0 .34-.14.56.56 0 0 0 .15-.35.53.53 0 0 0-.15-.34.47.47 0 0 0-.35-.15h-4a.51.51 0 0 0-.49.49.51.51 0 0 0 .15.35.5.5 0 0 0 .35.14zM80.56 105.41h4a.49.49 0 0 0 .34-.14.48.48 0 0 0 .14-.34.52.52 0 0 0-.14-.35.5.5 0 0 0-.35-.14h-4a.48.48 0 0 0-.34.14.47.47 0 0 0 0 .69.49.49 0 0 0 .35.14zM84.2 92.39a.38.38 0 0 1-.38-.38V80.67a.38.38 0 0 1 .37-.37.39.39 0 0 1 .27.11.36.36 0 0 1 .11.26v11.34a.39.39 0 0 1-.11.27.41.41 0 0 1-.26.11z" transform="translate(-28.83 -23.34)"/><path class="cls-6" d="M87.7 91.94h-7v.88h7zM86.12 85.6a.18.18 0 0 1-.13-.06.19.19 0 0 1 0-.13v-5.66a.18.18 0 0 1 .06-.13.19.19 0 0 1 .26 0 .16.16 0 0 1 .06.13v5.66a.17.17 0 0 1 0 .07v.06h-.06z" transform="translate(-28.83 -23.34)"/><path class="cls-6" d="M78.73 81.72s.13-5.35 5.44-5.36 5.45 5.33 5.45 5.33zM124.69 89.17a3.39 3.39 0 0 1 .45 0 6.5 6.5 0 0 1 5.86 8.17 32.1 32.1 0 0 0-1 8.45v8.3a1.15 1.15 0 0 1-.08.41 1.13 1.13 0 0 1-.24.36 1.21 1.21 0 0 1-.35.24 1.25 1.25 0 0 1-.42.08H102.5v-26z" transform="translate(-28.83 -23.34)"/><path class="cls-7" d="M96 95.72a6.48 6.48 0 0 1 .58-2.67 6.47 6.47 0 0 1 4-3.53 6.55 6.55 0 0 1 5.32.7 6.38 6.38 0 0 1 2 1.9 6.31 6.31 0 0 1 1 2.54 6.45 6.45 0 0 1-.12 2.73 32.17 32.17 0 0 0-1 8.46v8.29a1.2 1.2 0 0 1-.08.42 1 1 0 0 1-.24.35 1 1 0 0 1-.77.32h-8.34a1.25 1.25 0 0 1-.42-.08 1.16 1.16 0 0 1-.59-.59 1.16 1.16 0 0 1-.08-.42v-8.79a29.83 29.83 0 0 0-1-7.92 6.28 6.28 0 0 1-.26-1.71z" transform="translate(-28.83 -23.34)"/><path class="cls-6" d="M111.47 115.21h23.7v-15.8h-23.71z" transform="translate(-28.83 -23.34)"/><path class="cls-9" d="M154.74 102.91 123 103V78.75a4.9 4.9 0 0 1 4.91-4.92h21.89a5 5 0 0 1 3.48 1.43 4.92 4.92 0 0 1 1.45 3.47z" transform="translate(-28.83 -23.34)"/><path class="cls-7" d="m148.54 102.92-31.73.06V78.52a4.68 4.68 0 0 1 4.68-4.68h22.34a4.69 4.69 0 0 1 4.7 4.67l.05 24.46z" transform="translate(-28.83 -23.34)"/><path class="cls-9" d="M133.6 104.37h-21.85a1.45 1.45 0 0 1-1-.41 1.42 1.42 0 0 1-.42-1v-3.54a1.43 1.43 0 0 1 1.41-1.42h21.85a.39.39 0 0 1 .3.12.43.43 0 0 1 .13.3v5.56a.43.43 0 0 1-.13.3.42.42 0 0 1-.29.09z" transform="translate(-28.83 -23.34)"/><path class="cls-6" d="M157.05 89.11h.46a6.5 6.5 0 0 1 5.84 8.15 32.17 32.17 0 0 0-1 8.46v8.29a1.16 1.16 0 0 1-.08.42 1.21 1.21 0 0 1-.24.35.92.92 0 0 1-.35.24 1 1 0 0 1-.42.08l-26.41.06-.05-26z" transform="translate(-28.83 -23.34)"/><path class="cls-7" d="M128.32 95.66a6.5 6.5 0 0 1 13-.45 6.53 6.53 0 0 1-.2 2.11 32.1 32.1 0 0 0-1 8.45v8.3a1.07 1.07 0 0 1-.32.77 1.1 1.1 0 0 1-.77.32h-8.34a1.15 1.15 0 0 1-.77-.32.92.92 0 0 1-.24-.35 1 1 0 0 1-.08-.42v-8.79a29.37 29.37 0 0 0-1-7.91 6.8 6.8 0 0 1-.28-1.71z" transform="translate(-28.83 -23.34)"/><path class="cls-9" d="m103 116 53.67-.11a.77.77 0 0 0 .3-.06.76.76 0 0 0 .43-.43.77.77 0 0 0 .06-.3l-55.25.11a.81.81 0 0 0 .06.31.81.81 0 0 0 .42.42.81.81 0 0 0 .31.06zM134.63 55.3h17.26V36.52h-17.27z" transform="translate(-28.83 -23.34)"/><path class="cls-7" d="M133.6 55.3h17.71V36.52H133.6z" transform="translate(-28.83 -23.34)"/><path class="cls-8" d="M149.82 53.79V37.97h-14.74v15.82z" transform="translate(-28.83 -23.34)"/><path class="cls-7" d="m142.43 41.9 4 7h-8.07z" transform="translate(-28.83 -23.34)"/><path class="cls-9" d="M110.44 66.31h17.26V47.53h-17.26z" transform="translate(-28.83 -23.34)"/><path class="cls-7" d="M109.41 66.31h17.71V47.53h-17.71z" transform="translate(-28.83 -23.34)"/><path class="cls-8" d="M125.63 64.8V48.98h-14.75V64.8z" transform="translate(-28.83 -23.34)"/><path class="cls-7" d="m116.44 59.73-1.75-3a2.07 2.07 0 0 1 .76-2.83 2.07 2.07 0 0 1 1-.28H120a2.1 2.1 0 0 1 1 .28 2 2 0 0 1 .76.75 2 2 0 0 1 0 2.08l-1.74 3a2 2 0 0 1-.76.77 2 2 0 0 1-1 .28 2.12 2.12 0 0 1-1-.27 2.18 2.18 0 0 1-.82-.78zM91.29 135.54c34-.07 61.53-1.73 61.52-3.71s-27.55-3.53-61.53-3.46-61.52 1.73-61.52 3.71 27.55 3.53 61.53 3.46z" transform="translate(-28.83 -23.34)"/><path class="cls-10" d="M112.18 31.61 39 31.76l5 99.34 73.2-.1z" transform="translate(-28.83 -23.34)"/><path class="cls-11" d="M112.18 31.61 39 31.76l5 99.34 73.2-.1z" transform="translate(-28.83 -23.34)"/><path class="cls-10" d="m112.86 31.61-73.15.15 5 99.34 73.15-.15z" transform="translate(-28.83 -23.34)"/><path class="cls-11" d="m109 35-65.94.13 4.79 91.51 57.34-.19 9.52-8.44z" transform="translate(-28.83 -23.34)"/><path class="cls-8" d="M109.51 35a743.48 743.48 0 0 0 6.81 81.91q-7.83 5.4-15.57 10.79l-49.32.1a745.16 745.16 0 0 1-8.37-92.66z" transform="translate(-28.83 -23.34)"/><path class="cls-5" d="M116.32 116.86q-7.83 5.4-15.57 10.79 1.68-7.12 3.5-14.24z" transform="translate(-28.83 -23.34)"/><path class="cls-10" d="M61 43.43q.2 5 .45 10H51.37c-.17-3.35-.33-6.7-.46-10zm1-1.07H49.79c.15 4.06.34 8.11.56 12.18h12.21q-.33-6.09-.55-12.18z" transform="translate(-28.83 -23.34)"/><path class="cls-9" d="m102.16 47.12-34.53.07-.09-2.27 34.52-.07c.03.75.07 1.51.1 2.27zM94.88 51.91l-27 .06c0-.76-.07-1.52-.11-2.28h27z" transform="translate(-28.83 -23.34)"/><path class="cls-10" d="M62 63.12q.33 5 .73 10.06H52.64q-.41-5-.73-10.06zm1-1.06H50.79q.39 6.09.88 12.19H63.9q-.5-6.09-.89-12.18z" transform="translate(-28.83 -23.34)"/><path class="cls-9" d="M81.44 66.86H68.75c0-.76-.11-1.52-.16-2.28h12.69c.05.76.11 1.52.16 2.28zM93.46 66.84h-9.33c-.06-.75-.11-1.51-.16-2.27h9.33c.05.75.1 1.51.16 2.27zM99.33 71.61l-30.22.06-.18-2.28 30.22-.06z" transform="translate(-28.83 -23.34)"/><path class="cls-10" d="M63.54 82.82c.31 3.36.64 6.71 1 10.07H54.46q-.54-5-1-10.06zm1-1.06H52.33c.36 4.06.77 8.12 1.2 12.18h12.22q-.69-6.09-1.24-12.18z" transform="translate(-28.83 -23.34)"/><path class="cls-9" d="m105.19 89-34.53.07.23 2.27 34.53-.07zM97.22 84.26l-27 .06c.07.75.15 1.51.22 2.27l27-.06c-.08-.75-.15-1.53-.22-2.27z" transform="translate(-28.83 -23.34)"/><path class="cls-10" d="M65.62 102.53q.6 5 1.27 10.06H56.8c-.44-3.35-.86-6.71-1.26-10.06zm.95-1.06H54.35q.7 6.09 1.53 12.18h12.2q-.81-6.08-1.53-12.17z" transform="translate(-28.83 -23.34)"/><path class="cls-9" d="m107.13 106.21-34.54.07c-.09-.76-.19-1.51-.28-2.27l34.54-.07c.09.77.15 1.52.28 2.27zM88.92 111H73.2c-.1-.76-.2-1.52-.29-2.27h15.72c.1.79.19 1.55.29 2.27zM98.31 111h-6.79c-.1-.75-.19-1.51-.29-2.27H98c.11.77.22 1.53.31 2.27z" transform="translate(-28.83 -23.34)"/><path class="cls-10" d="m56.53 52.06-.45-.71A12.3 12.3 0 0 0 52.42 48l.51-.91a14.32 14.32 0 0 1 3.58 3 32.86 32.86 0 0 1 6.9-6.57l.66.85a30.2 30.2 0 0 0-7.09 7zM57.78 71.76l-.47-.71a13 13 0 0 0-3.75-3.34l.48-.9a14.74 14.74 0 0 1 3.67 3 31.65 31.65 0 0 1 6.72-6.58c.23.29.46.57.68.86a29 29 0 0 0-6.9 7c-.15.22-.29.44-.43.67zM59.57 91.51l-.49-.71a13.29 13.29 0 0 0-3.84-3.33c.15-.32.32-.61.46-.91a15.77 15.77 0 0 1 3.75 3A30.53 30.53 0 0 1 66 83l.7.85a28 28 0 0 0-6.72 7z" transform="translate(-28.83 -23.34)"/><path class="cls-5" d="M91.62 122.21a6.48 6.48 0 0 1-3.9-1.29 5.48 5.48 0 0 0-3.36-1.12 4.18 4.18 0 0 0-3 1.14 5.1 5.1 0 0 1-3.53 1.3A6.51 6.51 0 0 1 73.9 121a5.45 5.45 0 0 0-3.35-1.12 4.27 4.27 0 0 0-3 1.13 5 5 0 0 1-3.55 1.26 6.58 6.58 0 0 1-3.91-1.27 5.46 5.46 0 0 0-3.35-1.13c0-.31-.09-.6-.13-.91a6.61 6.61 0 0 1 3.9 1.29 5.48 5.48 0 0 0 3.35 1.13 4.3 4.3 0 0 0 3-1.14 5.13 5.13 0 0 1 3.53-1.31 6.61 6.61 0 0 1 3.9 1.29 5.51 5.51 0 0 0 3.36 1.13 4.23 4.23 0 0 0 3-1.14 5.11 5.11 0 0 1 3.54-1.3 6.48 6.48 0 0 1 3.9 1.29 5.45 5.45 0 0 0 3.35 1.12c.09.29.14.59.18.89z" transform="translate(-28.83 -23.34)"/><path d="M94.13 34.11a6.87 6.87 0 0 0-6.23-4.71h-5.43a2.06 2.06 0 0 1-1.89-1.26 5.08 5.08 0 0 0-1.86-2.24 5.13 5.13 0 0 0-2.72-.84 4.51 4.51 0 0 0-4.32 3.11 1.81 1.81 0 0 1-.67.92 1.86 1.86 0 0 1-1.09.35h-5.48a6.08 6.08 0 0 0-5.75 4.73l-.32 1.13 36.18-.08z" transform="translate(-28.83 -23.34)" style="fill:#263238"/><path class="cls-10" d="m94.33 36.35-35.61.07a1.17 1.17 0 0 1-.8-.32 1.2 1.2 0 0 1-.37-.79 1 1 0 0 1 .06-.42 1.1 1.1 0 0 1 .23-.37 1.21 1.21 0 0 1 .35-.24 1 1 0 0 1 .42-.08l35.6-.08a1.22 1.22 0 0 1 .81.33 1.15 1.15 0 0 1 .37.78 1.05 1.05 0 0 1-.07.43.9.9 0 0 1-.22.36 1 1 0 0 1-.35.24 1.06 1.06 0 0 1-.42.09z" transform="translate(-28.83 -23.34)"/><path class="cls-11" d="m94.33 36.35-35.61.07a1.17 1.17 0 0 1-.8-.32 1.2 1.2 0 0 1-.37-.79 1 1 0 0 1 .06-.42 1.1 1.1 0 0 1 .23-.37 1.21 1.21 0 0 1 .35-.24 1 1 0 0 1 .42-.08l35.6-.08a1.22 1.22 0 0 1 .81.33 1.15 1.15 0 0 1 .37.78 1.05 1.05 0 0 1-.07.43.9.9 0 0 1-.22.36 1 1 0 0 1-.35.24 1.06 1.06 0 0 1-.42.09z" transform="translate(-28.83 -23.34)"/></g><path d="M164 99a65.27 65.27 0 0 1-35.54 57.82c-.62.32-1.24.62-1.87.92l-.87.4c-1.83.83-3.7 1.58-5.63 2.24-1.51.5-3.07 1-4.64 1.42a66.26 66.26 0 0 1-27.78 1.29c-1.1-.18-2.18-.38-3.25-.62l-.91-.2a64.29 64.29 0 0 1-8.08-2.44q-2.34-.83-4.54-1.83l-1.7-.82c-.39-.19-.77-.38-1.14-.58A65.3 65.3 0 0 1 43 133.46a64.59 64.59 0 0 1-2-65.54 65.72 65.72 0 0 1 114.09-1.69A64.57 64.57 0 0 1 164 99z" transform="translate(-28.83 -23.34)" style="fill:url(#linear-gradient)"/><path class="cls-14" d="M106.61 94a17.84 17.84 0 0 0-1.24 3.61c0 .71.61 3.92 2.17 4.6 1 .45 1.55.79 2.06-.48.33-.81-.82-2.46-.51-3.92s1.34-2.88.15-3.81a2.43 2.43 0 0 0-2.63 0z" transform="translate(-28.83 -23.34)"/><path class="cls-14" d="M110.49 95a16.12 16.12 0 0 0-.23 3.23c.15 1-1 1.08-1-.67v-3.54z" transform="translate(-28.83 -23.34)"/><path class="cls-15" d="M118.92 136.64c-1.65 1.44-1.56 3.77-7.9 5.93a2.51 2.51 0 0 0-1.77 2.56s11.75-.13 12.25-1.06-.39-4.28-1.26-5 .39-2.74-1.32-2.43z" transform="translate(-28.83 -23.34)"/><path class="cls-16" d="M109.22 144.57a51.36 51.36 0 0 0 12.39-.78v.7a.21.21 0 0 1-.19.22l-2.67.28-.25-.13s-7.35.84-9.32.54c.04 0-.18-.85.04-.83z" transform="translate(-28.83 -23.34)"/><path class="cls-15" d="M130.5 137c-1.66 1.44-1.72 4.12-7.88 6.06a2.33 2.33 0 0 0-1.77 2.47s11.69-.19 12.23-1.09-.4-4.29-1.26-5 .38-2.75-1.32-2.44z" transform="translate(-28.83 -23.34)"/><path class="cls-16" d="M120.84 144.94c4.24.69 12.35-.78 12.35-.78v.7a.22.22 0 0 1-.19.22l-2.67.27-.25-.13s-8.52 1.1-9.28.55c.04 0-.17-.87.04-.83z" transform="translate(-28.83 -23.34)"/><path class="cls-17" d="M114 135.4v4.52c0 1.22 10.07 2 10 .88s0-4.39 0-4.39z" transform="translate(-28.83 -23.34)"/><path class="cls-18" d="M123.42 140.09v-3.74l.57.06s-.07 3.24 0 4.39-10 .34-10-.88v-.22c2.1.92 9.49 1.37 9.43.39z" transform="translate(-28.83 -23.34)"/><path class="cls-17" d="M123.41 135.92s.61 3.47.83 4.75 10.94.28 10.66-.91-.8-4.61-.8-4.61z" transform="translate(-28.83 -23.34)"/><path class="cls-18" d="M134.14 139.27c-.21-.9-.56-3.07-.72-4.08h.68s.52 3.41.8 4.61-10.43 2.19-10.66.91v-.06c2.46.5 10.14-.37 9.9-1.38z" transform="translate(-28.83 -23.34)"/><path class="cls-19" d="M112.05 40.72a8.54 8.54 0 0 0-1.7 6.47c.33 2.92 1.64 6.3 1.54 7.48s2.11 2.41 2.11 2.41l3.38-.55s-2.06-6.52-2.06-6.66-3.27-9.15-3.27-9.15z" transform="translate(-28.83 -23.34)"/><path style="fill:#e6b59e" d="m89.06 31.52.19 2.22 4.19-1.36-.57-5.03-3.57.61-.24 3.56z"/><path class="cls-17" d="M112.72 58.13c-.5-1.82-2.33-1.94-3.41-.57s-2.7 17.5-2.87 19 5.81 5.39 6 2.43 1.28-17.21.28-20.86z" transform="translate(-28.83 -23.34)"/><path d="M123.36 55.26s5.36-.18 6.24 3c.55 2 1.84 26.4 1.84 26.4s5.73 50.22 5.83 51.66-29.13 3.11-29.13 1.12 3.28-53.23 3.28-53.23l-1-27.47a19.63 19.63 0 0 1 7.13-1.88c.69-.07.32 1.44 1.24 1.44 3.48.02 3.53-1.05 4.57-1.04z" transform="translate(-28.83 -23.34)" style="fill:#fcfcfc"/><path class="cls-22" d="M129.16 130c3.41-5.19-3.49-50.1-3.49-50.1s-1-18.51-1.59-24.6c1.49.08 4.84.53 5.52 3 .55 1.95 1.84 26.4 1.84 26.4s5.73 50.22 5.83 51.66-29.13 3.11-29.13 1.12c0-.29 0-.88.15-3.06 8.54.12 18.18-.33 20.87-4.42z" transform="translate(-28.83 -23.34)"/><path class="cls-19" d="M111.89 54.67s-.47 15.39.58 21.14c.53 2.91 4.74-15.89 4-22.12-1.46-.94-2 1.17-2 1.17zM120.07 52.5s-1.19 26.13.23 25.67 2-1.15 2-8.73c0-3.14 1.9-12.39 3.63-12.89s-2.61-7.65-2.61-7.65z" transform="translate(-28.83 -23.34)"/><path class="cls-17" d="m77.61 53.2-2.63 18.23 7.29 1.64 1.37-17.31-6.03-2.56z"/><path class="cls-14" d="M109.7 78.85a1 1 0 0 0 .36.81 8.49 8.49 0 0 0 2.76 1.51 18.42 18.42 0 0 0 4.5-.51s.57-3 0-4c-1-1.46-1.56-1.09-2.33-2.75-.5-1.06-1-1-1 .33 0 1 1.13 1.72.67 2s-3.64-1.56-4.21-.93-.67 2.57-.75 3.54z" transform="translate(-28.83 -23.34)"/><path class="cls-23" d="M120.08 52.67s-.3 3.64-1.29 3.63-.82-1-.82-1z" transform="translate(-28.83 -23.34)"/><path class="cls-14" d="M121.42 49.84s-2.32 5-3.32 5.68-1.76.73-2.32 0-3.39-4.44-3.83-6.47-.94-5.35 0-6.54 7.72-2.2 8.78-.57.69 7.9.69 7.9z" transform="translate(-28.83 -23.34)"/><path class="cls-24" d="M120.08 52.67s-.77 3-2.73 3.86-2.9-2.83-2.9-2.83a2.45 2.45 0 0 0 2 .9 7.45 7.45 0 0 0 3.63-1.93z" transform="translate(-28.83 -23.34)"/><path class="cls-24" d="M117.35 52.17s1 2.13.71 2.38c-.63.52-.71-.15-.71-.15s-.5-2.11-1.58-2.08c-2 0 0 2-.25 2.54-.18.32-1.07-1.16-1.07-1.16s-.57-1.3-.12-2a1.82 1.82 0 0 1 3.02.47z" transform="translate(-28.83 -23.34)"/><path class="cls-23" d="M111.42 44.48a6.11 6.11 0 0 1 3.34.78c1.31.91 4.49 3.41 4.84 4.46s.8 1.25.8 1.25l-.35-3.68s-2.14-1.56-2.16-1.66-2.73-1.39-2.73-1.39l-2.74-.64-1 .44z" transform="translate(-28.83 -23.34)"/><path class="cls-19" d="M111.24 45.3c.23-1.86.79-1.17 2.58-1.1s3.39 2.52 4.52 3.13 1.8 3.34 1.73 5.17 4.34 5.11 5.58 4.25A2.85 2.85 0 0 1 129 57c-1-5-3-17.33-10.09-18.51s-8.37 4.58-7.67 6.81z" transform="translate(-28.83 -23.34)"/><path class="cls-17" d="m117.19 73.94-.81 9.46s12.65 2.43 15.06 1.26c1.81-.88 1.55-2.83 1.52-4-.05-1.36-1.75-2.15-3-2.57z" transform="translate(-28.83 -23.34)"/><path class="cls-17" d="M128.2 56.65c3.62-.15 5.12 22.49 4.79 25.08s-6.83 2.14-7.51 0-.59-9.74-1.14-14.51c-.34-3.08.47-10.43 3.86-10.57z" transform="translate(-28.83 -23.34)"/><path class="cls-22" d="M130.13 83.55a2.91 2.91 0 0 0 1.55-2.93c.29-2.23-.79-19.4-3.42-24 3.56.19 5 22.5 4.71 25.07a2.94 2.94 0 0 1-1.55 2.93c-2.42 1.17-15.06-1.26-15.06-1.26l.07-.87c3.33.63 11.78 1.99 13.7 1.06z" transform="translate(-28.83 -23.34)"/><path class="cls-25" d="M124.52 42.24c-3.3.53-9.21.84-13.26-.39-.79-.24-1 .77-.65.92 2.93 1.24 11 1.31 14.15.5.66-.17.17-1.09-.24-1.03z" transform="translate(-28.83 -23.34)"/><path class="cls-25" d="M124 41a41 41 0 0 1-12.1-.23c-.75-.16-.93.72-.6.86 2.4 1 9.69 1 12.87.44.62-.07.26-1.07-.17-1.07z" transform="translate(-28.83 -23.34)"/><path class="cls-19" d="M117.93 65.06c-.05.3-.25.52-.46.48s-.32-.3-.27-.61.26-.52.46-.49.34.31.27.62zM118.26 61.05c-.06.3-.26.52-.46.49s-.33-.31-.28-.62.26-.52.46-.48.33.31.28.61zM117.61 69.2c0 .3-.26.52-.46.48s-.32-.3-.27-.61.25-.52.46-.48.32.3.27.61z" transform="translate(-28.83 -23.34)"/></g></g></svg>