<svg width="21" height="21" viewBox="0 0 21 21" fill="none" xmlns="http://www.w3.org/2000/svg">
<path d="M13.9905 20.54H13.8605C9.4205 20.54 7.2805 18.79 6.9105 14.87C6.8705 14.46 7.1705 14.09 7.5905 14.05C8.0005 14.01 8.3705 14.32 8.4105 14.73C8.7005 17.87 10.1805 19.04 13.8705 19.04H14.0005C18.0705 19.04 19.5105 17.6 19.5105 13.53V7.01C19.5105 2.94 18.0705 1.5 14.0005 1.5H13.8705C10.1605 1.5 8.6805 2.69 8.4105 5.89C8.3605 6.3 8.0205 6.61 7.5905 6.57C7.1705 6.54 6.8705 6.17 6.9005 5.76C7.2405 1.78 9.3905 0 13.8605 0H13.9905C18.9005 0 21.0005 2.1 21.0005 7.01V13.53C21.0005 18.44 18.9005 20.54 13.9905 20.54Z" fill="#292D32"/>
<path d="M13.63 11.0195H0.75C0.34 11.0195 0 10.6795 0 10.2695C0 9.85953 0.34 9.51953 0.75 9.51953H13.63C14.04 9.51953 14.38 9.85953 14.38 10.2695C14.38 10.6795 14.05 11.0195 13.63 11.0195Z" fill="#292D32"/>
<path d="M11.3998 14.3694C11.2098 14.3694 11.0198 14.2994 10.8698 14.1494C10.5798 13.8594 10.5798 13.3794 10.8698 13.0894L13.6898 10.2694L10.8698 7.44938C10.5798 7.15938 10.5798 6.67937 10.8698 6.38938C11.1598 6.09938 11.6398 6.09938 11.9298 6.38938L15.2798 9.73938C15.5698 10.0294 15.5698 10.5094 15.2798 10.7994L11.9298 14.1494C11.7798 14.2994 11.5898 14.3694 11.3998 14.3694Z" fill="#292D32"/>
</svg>
