<svg width="74" height="74" viewBox="0 0 74 74" fill="none" xmlns="http://www.w3.org/2000/svg">
<path d="M54.8519 70.1151H19.1468C10.6985 70.1151 3.85352 63.2392 3.85352 54.7909V31.9434C3.85352 27.7501 6.44352 22.4776 9.77352 19.8876L26.3927 6.93757C31.3877 3.05257 39.3735 2.86757 44.5535 6.50591L63.6085 19.8567C67.2777 22.4159 70.1452 27.9042 70.1452 32.3751V54.8217C70.1452 63.2392 63.3002 70.1151 54.8519 70.1151ZM29.2293 10.5759L12.6102 23.5259C10.421 25.2526 8.47852 29.1684 8.47852 31.9434V54.7909C8.47852 60.6801 13.2577 65.4901 19.1468 65.4901H54.8519C60.741 65.4901 65.5202 60.7109 65.5202 54.8217V32.3751C65.5202 29.4151 63.3927 25.3142 60.9569 23.6492L41.9019 10.2984C38.3869 7.83174 32.5902 7.95507 29.2293 10.5759Z" fill="#2EAC6D"/>
<path d="M50.8755 53.1875C50.2897 53.1875 49.7039 52.9717 49.2414 52.5092L38.2955 41.5634L34.9347 46.62C34.5647 47.2059 33.9172 47.5759 33.2389 47.6375C32.5297 47.6992 31.8514 47.4525 31.3889 46.9592L21.5222 37.0925C20.628 36.1984 20.628 34.7184 21.5222 33.8242C22.4164 32.93 23.8964 32.93 24.7905 33.8242L32.653 41.6867L36.0139 36.63C36.3839 36.0442 37.0314 35.6742 37.7097 35.6125C38.4189 35.5509 39.0972 35.7975 39.5597 36.2909L52.5097 49.2409C53.4039 50.135 53.4039 51.615 52.5097 52.5092C52.0472 52.9717 51.4614 53.1875 50.8755 53.1875Z" fill="#2EAC6D"/>
<path d="M50.8757 53.1874H44.709C43.4448 53.1874 42.3965 52.1391 42.3965 50.8749C42.3965 49.6108 43.4448 48.5624 44.709 48.5624H48.5632V44.7083C48.5632 43.4441 49.6115 42.3958 50.8757 42.3958C52.1398 42.3958 53.1882 43.4441 53.1882 44.7083V50.8749C53.1882 52.1391 52.1398 53.1874 50.8757 53.1874Z" fill="#2EAC6D"/>
</svg>
