<svg width="74" height="74" viewBox="0 0 74 74" fill="none" xmlns="http://www.w3.org/2000/svg">
<path d="M54.8519 70.1151H19.1468C10.6985 70.1151 3.85352 63.2392 3.85352 54.7909V31.9434C3.85352 27.7501 6.44352 22.4776 9.77352 19.8876L26.3927 6.93757C31.3877 3.05257 39.3735 2.86757 44.5535 6.50591L63.6085 19.8567C67.2777 22.4159 70.1452 27.9042 70.1452 32.3751V54.8217C70.1452 63.2392 63.3002 70.1151 54.8519 70.1151ZM29.2293 10.5759L12.6102 23.5259C10.421 25.2526 8.47852 29.1684 8.47852 31.9434V54.7909C8.47852 60.6801 13.2577 65.4901 19.1468 65.4901H54.8519C60.741 65.4901 65.5202 60.7109 65.5202 54.8217V32.3751C65.5202 29.4151 63.3927 25.3142 60.9569 23.6492L41.9019 10.2984C38.3869 7.83174 32.5902 7.95507 29.2293 10.5759Z" fill="#FFCB3C"/>
<path d="M23.1251 53.1875C22.5393 53.1875 21.9534 52.9717 21.4909 52.5092C20.5968 51.615 20.5968 50.135 21.4909 49.2409L31.3576 39.3742C31.8509 38.8809 32.4984 38.6342 33.2076 38.6959C33.8859 38.7575 34.5026 39.1275 34.9034 39.7134L38.2643 44.77L49.2101 33.8242C50.1043 32.93 51.5843 32.93 52.4784 33.8242C53.3726 34.7184 53.3726 36.1984 52.4784 37.0925L39.5284 50.0425C39.0351 50.5359 38.3876 50.7825 37.6784 50.7209C37.0001 50.6592 36.3834 50.2892 35.9826 49.7034L32.6218 44.6467L24.7593 52.5092C24.2968 52.9717 23.7109 53.1875 23.1251 53.1875Z" fill="#FFCB3C"/>
<path d="M50.8757 43.9374C49.6115 43.9374 48.5632 42.8891 48.5632 41.6249V37.7708H44.709C43.4448 37.7708 42.3965 36.7224 42.3965 35.4583C42.3965 34.1941 43.4448 33.1458 44.709 33.1458H50.8757C52.1398 33.1458 53.1882 34.1941 53.1882 35.4583V41.6249C53.1882 42.8891 52.1398 43.9374 50.8757 43.9374Z" fill="#FFCB3C"/>
</svg>
