<svg width="83" height="83" viewBox="0 0 83 83" fill="none" xmlns="http://www.w3.org/2000/svg">
<circle cx="41.5" cy="41.5" r="41.5" fill="#FFCB3C"/>
<path d="M32.2116 32.1683L32.2116 32.1683L32.2173 32.1681L36.9126 31.9999C37.13 31.9962 37.3342 32.0624 37.4909 32.1756C37.6463 32.2879 37.7399 32.4344 37.7763 32.5804L38.4215 35.3503C38.4494 35.4791 38.4354 35.6137 38.3766 35.7403C38.3171 35.8687 38.2102 35.9904 38.0574 36.0787L36.8808 36.744C36.6388 36.8787 36.4327 37.0829 36.2989 37.3412C36.1635 37.6025 36.1119 37.9013 36.1566 38.1972C36.5465 40.7902 38.4829 42.7382 40.3143 44.0553C42.1764 45.3945 44.134 46.2279 44.9121 46.5391L44.9121 46.5392L44.9216 46.5429C45.2246 46.6605 45.5581 46.6758 45.8694 46.5883C46.1812 46.5007 46.4668 46.3105 46.6656 46.0325L46.6665 46.0313L47.3158 45.1201C47.3162 45.1195 47.3167 45.1189 47.3171 45.1183C47.4043 44.9982 47.5366 44.8939 47.7055 44.8304C47.8747 44.7667 48.0642 44.7504 48.2469 44.7859C48.2479 44.7861 48.2489 44.7863 48.2499 44.7865L51.187 45.3884C51.3895 45.4332 51.5565 45.5365 51.6687 45.6664C51.7795 45.7947 51.8321 45.9416 51.8343 46.0829V50.2193C51.8336 50.2355 51.8266 50.2647 51.7925 50.2979C51.7555 50.3339 51.6918 50.3674 51.6093 50.3731C45.9399 50.6039 40.5125 49.0312 36.3496 44.546L36.3475 44.5438C34.6574 42.7339 33.6027 40.3365 32.9527 38.0207C32.3052 35.7139 32.0793 33.5606 32.0003 32.3065L32.0003 32.3065L32.0001 32.3029C31.9997 32.2965 32.0004 32.2887 32.0041 32.2791C32.0079 32.2692 32.0157 32.2548 32.0315 32.2388C32.0474 32.2225 32.0708 32.2053 32.1026 32.1917C32.1345 32.1781 32.1717 32.1695 32.2116 32.1683Z" fill="#FFCB3C" stroke="white" stroke-width="2"/>
</svg>
