<svg width="29" height="29" viewBox="0 0 29 29" fill="none" xmlns="http://www.w3.org/2000/svg">
<path d="M15.708 10.8751H22.3538L15.708 4.22925V10.8751ZM7.24967 2.41675H16.9163L24.1663 9.66675V24.1668C24.1663 24.8077 23.9117 25.4224 23.4585 25.8756C23.0053 26.3288 22.3906 26.5834 21.7497 26.5834H7.24967C6.60873 26.5834 5.99405 26.3288 5.54083 25.8756C5.08762 25.4224 4.83301 24.8077 4.83301 24.1668V4.83342C4.83301 3.49216 5.90842 2.41675 7.24967 2.41675ZM8.45801 24.1668H10.8747V16.9167H8.45801V24.1668ZM13.2913 24.1668H15.708V14.5001H13.2913V24.1668ZM18.1247 24.1668H20.5413V19.3334H18.1247V24.1668Z" fill="#2EAC6D"/>
</svg>
