<svg xmlns="http://www.w3.org/2000/svg" viewBox="0 0 430.89 404.81"><defs><style>.cls-10,.cls-11,.cls-17,.cls-18,.cls-20,.cls-21,.cls-22{isolation:isolate}.cls-2{fill:#fafafa}.cls-10,.cls-21,.cls-22,.cls-3{fill:#fff}.cls-4{fill:#ebebeb}.cls-5{fill:#e0e0e0}.cls-6{fill:#f5f5f5}.cls-7{fill:#f0f0f0}.cls-9{fill:#ffcb3c}.cls-10{opacity:.35}.cls-11{opacity:.15}.cls-12{fill:#455a64}.cls-13{fill:#263238}.cls-14{fill:#37474f}.cls-15,.cls-17,.cls-21{opacity:.2}.cls-18{opacity:.4}.cls-20{opacity:.1}.cls-22{opacity:.3}.cls-30{mix-blend-mode:multiply}.cls-27{fill:#514340}.cls-29{fill:#f1f2f2}.cls-30{fill:#d8d8d8;opacity:.36}.cls-31{fill:#efc7b1}.cls-32{fill:#e6d9d5}.cls-35{fill:#554b50}.cls-43{fill:#423a3e}</style></defs><g style="isolation:isolate"><g id="Layer_1" data-name="Layer 1"><path class="cls-2" d="M68.65 219.29c-84.14 48.51-84.13 127 0 175.52s220.55 48.47 304.69 0 84.13-127 0-175.52-220.55-48.46-304.69 0zM141.65 109.77l1.51.9 31-17.87-1.52-.9z" transform="translate(-5.55 -26.35)"/><path class="cls-3" d="m172.66 91.9-29.5 17V78.06l29.5-17z" transform="translate(-5.55 -26.35)"/><path class="cls-4" d="m177 55.27-36.69 21.16v39.17L177 94.44zm-2.85 37.53-30.94 17.87V78l30.94-17.8z" transform="translate(-5.55 -26.35)"/><path class="cls-5" d="m174.17 92.8-1.51-.9V61.08l1.51-.88z" transform="translate(-5.55 -26.35)"/><path class="cls-6" d="m177 55.27-1.54-.88-36.69 21.15 1.54.88z" transform="translate(-5.55 -26.35)"/><path class="cls-5" d="m138.77 75.54 1.54.88v39.18l-1.54-.89z" transform="translate(-5.55 -26.35)"/><path class="cls-7" d="m171.51 91-27.2 15.67v-7.86l6.8-15.67 4.24 3.91-1.53 6.57 9.4-20 8.29 9.55z" transform="translate(-5.55 -26.35)"/><path class="cls-7" d="M155.1 75.57a4.37 4.37 0 0 0-1.43 1.5 4.47 4.47 0 0 0-.59 2c0 1.28.89 1.77 2 1.16a4.43 4.43 0 0 0 1.42-1.5 4.3 4.3 0 0 0 .58-2c.02-1.27-.88-1.73-1.98-1.16z" transform="translate(-5.55 -26.35)"/><path class="cls-2" d="m190.29 81.74 1.51.89 31-17.86-1.51-.9z" transform="translate(-5.55 -26.35)"/><path class="cls-3" d="m221.31 63.87-29.51 17V50l29.51-17z" transform="translate(-5.55 -26.35)"/><path class="cls-4" d="M225.68 27.24 189 48.4v39.16l36.72-21.17zm-2.86 37.53-31 17.86V50l31-17.86z" transform="translate(-5.55 -26.35)"/><path class="cls-5" d="m222.82 64.77-1.51-.9V33.05l1.51-.88z" transform="translate(-5.55 -26.35)"/><path class="cls-6" d="m225.68 27.24-1.54-.89-36.72 21.16 1.53.88z" transform="translate(-5.55 -26.35)"/><path class="cls-5" d="m187.42 47.51 1.53.88v39.17l-1.53-.88z" transform="translate(-5.55 -26.35)"/><path class="cls-7" d="M220.16 62.94 193 78.61v-7.83l6.8-15.67L204 59l-1.52 6.57 9.39-20 8.3 9.55z" transform="translate(-5.55 -26.35)"/><path class="cls-7" d="M203.74 47.54a4.37 4.37 0 0 0-1.43 1.5 4.3 4.3 0 0 0-.58 2c0 1.28.88 1.76 2 1.16a4.45 4.45 0 0 0 2-3.48c.02-1.29-.88-1.82-1.99-1.18z" transform="translate(-5.55 -26.35)"/><path d="M423.83 106.66c0-22.66-14.94-49.64-33.39-60.27-9.77-5.62-18.57-5.54-24.67-.88-7.59 3.15-12.45 11.86-12.45 24.78v121.36l66.81 38.49 3.7-2.14z" transform="translate(-5.55 -26.35)" style="fill:#e6e6e6"/><path class="cls-6" d="M420.13 230.14V108.8c0-22.66-15-49.64-33.41-60.27s-33.4-.88-33.4 21.78v121.34z" transform="translate(-5.55 -26.35)"/><path class="cls-5" d="M416.47 108.8v115L357 189.54V70.31c0-11.32 4-19.13 10.71-21.6a13.71 13.71 0 0 1 4.87-.83c3.81 0 8 1.27 12.38 3.81 17.35 10.05 31.51 35.63 31.51 57.11z" transform="translate(-5.55 -26.35)"/><path class="cls-4" d="m357 189.54 3.77-2.17 55.73 32.12v4.34z" transform="translate(-5.55 -26.35)"/><path class="cls-3" d="M416.47 108.8v110.69l-55.69-32.12V68.13c0-9 2.53-15.77 7-19.4a13.94 13.94 0 0 1 4.87-.84c3.8 0 7.95 1.28 12.37 3.81 17.29 10.04 31.45 35.62 31.45 57.1z" transform="translate(-5.55 -26.35)"/><path class="cls-6" d="m388.54 207.74-3.65-2.11V50.37h3.65z" transform="translate(-5.55 -26.35)"/><path class="cls-5" d="M392.2 57v148.64l-3.65 2.09V54.05A46.5 46.5 0 0 1 392.2 57z" transform="translate(-5.55 -26.35)"/><path class="cls-6" d="m357 163.82 27.92 16.09v4.28L357 168.11z" transform="translate(-5.55 -26.35)"/><path class="cls-4" d="m360.74 161.65-3.74 2.17 27.92 16.09v-4.28z" transform="translate(-5.55 -26.35)"/><path class="cls-6" d="m388.54 182 27.93 16.09v4.28l-27.93-16.07z" transform="translate(-5.55 -26.35)"/><path class="cls-4" d="m392.32 179.84-3.78 2.16 27.93 16.09v-4.28z" transform="translate(-5.55 -26.35)"/><path class="cls-6" d="m357 78.43 27.92 16.09v4.27L357 82.71z" transform="translate(-5.55 -26.35)"/><path class="cls-4" d="M360.74 76.27 357 78.43l27.92 16.09v-4.28z" transform="translate(-5.55 -26.35)"/><path class="cls-6" d="m388.54 96.62 27.93 16.08v4.3l-27.93-16.1z" transform="translate(-5.55 -26.35)"/><path class="cls-4" d="m392.32 94.44-3.78 2.18 27.93 16.08v-4.27z" transform="translate(-5.55 -26.35)"/><path class="cls-5" d="M81.65 390.52a12 12 0 0 1-1.93 4.48 21.35 21.35 0 0 1-7.23 6.43c-12.56 7.24-32.92 7.24-45.48 0a21.12 21.12 0 0 1-7.25-6.43 12 12 0 0 1-1.93-4.48c-1.11-5.44 2-11.1 9.19-15.27 12.56-7.24 32.92-7.24 45.48 0 7.2 4.17 10.27 9.83 9.15 15.27z" transform="translate(-5.55 -26.35)"/><path class="cls-5" d="M99.89 402.51 23 358.67a1.23 1.23 0 0 1 0-2.34l244.85-141.06a4.45 4.45 0 0 1 4.06 0l76.91 43.84a1.23 1.23 0 0 1 0 2.34L104 402.51a4.45 4.45 0 0 1-4.06 0zM183.7 410.19l-12.55-7.12 59-34.25a15.17 15.17 0 0 1-2.15-10.05c.78-5.49 4.73-10.58 11.11-14.27 6.74-3.92 15.64-6.07 25-6.07s18 2.09 24.67 5.89c7.31 4.19 11.36 10 11.39 16.31s-4 12.16-11.27 16.4c-6.74 3.91-15.63 6.07-25 6.07a58.73 58.73 0 0 1-11.76-1.19l-11 6.37-8.46-1.87-2.9 1.68-.29 7-5.49 3.12-7.83.72-3.33 1.87.48 3.62-9.87 5.71zm93.65-55.42a11 11 0 0 0-9.57 0 2.82 2.82 0 0 0-.88.73 2.79 2.79 0 0 0 .88.72 11 11 0 0 0 9.57 0 2.82 2.82 0 0 0 .88-.73 2.79 2.79 0 0 0-.88-.72z" transform="translate(-5.55 -26.35)"/><path class="cls-9" d="m270.36 223.67 4.49-2.59s23.78-77.42 26-81.9-1.76-6.78-6.07-4.31L71.49 263.32c-4.29 2.47-5.63 5.87-9.44 13.23s-25.29 78.5-25.29 78.5a3.89 3.89 0 0 0 .29 2.4 4 4 0 0 0 1.63 1.78l50.84 29.38 233.54-134.5z" transform="translate(-5.55 -26.35)"/><path class="cls-10" d="m270.36 223.67 4.49-2.59s23.78-77.42 26-81.9-1.76-6.78-6.07-4.31L71.49 263.32c-4.29 2.47-5.63 5.87-9.44 13.23s-25.29 78.5-25.29 78.5a3.89 3.89 0 0 0 .29 2.4 4 4 0 0 0 1.63 1.78l50.84 29.38 233.54-134.5z" transform="translate(-5.55 -26.35)"/><path class="cls-9" d="M64.85 278.35C62 284 39.6 356.6 39.6 356.6l238.07-137.14s23.62-73.84 26-78.5-1.77-6.77-6.08-4.3L74.26 265.11c-4.26 2.46-6.51 7.65-9.41 13.24z" transform="translate(-5.55 -26.35)"/><path class="cls-11" d="M64.85 278.35C62 284 39.6 356.6 39.6 356.6l238.07-137.14s23.62-73.84 26-78.5-1.77-6.77-6.08-4.3L74.26 265.11c-4.26 2.46-6.51 7.65-9.41 13.24z" transform="translate(-5.55 -26.35)"/><path class="cls-9" d="M273.14 222.07 39.59 356.6l51.72 29.8 233.55-134.53z" transform="translate(-5.55 -26.35)"/><path class="cls-9" d="m289.4 52.41-225 129.38c-4.93 2.84-6.47 7.44-5.6 13.5l26.61 186.45c.89 6.06 5.71 9.6 10.61 6.76l223.05-128.41c4.93-2.84 8.23-10.09 7.36-16.09L299.91 58.21c-.91-6.03-5.54-8.64-10.51-5.8z" transform="translate(-5.55 -26.35)"/><path class="cls-10" d="m289.4 52.41-225 129.38c-4.93 2.84-6.47 7.44-5.6 13.5l26.61 186.45c.89 6.06 5.71 9.6 10.61 6.76l223.05-128.41c4.93-2.84 8.23-10.09 7.36-16.09L299.91 58.21c-.91-6.03-5.54-8.64-10.51-5.8z" transform="translate(-5.55 -26.35)"/><path class="cls-12" d="M304.57 56.37a6.89 6.89 0 0 0-3.12-.33 7 7 0 0 0-2.95 1.08l-223 128.42a14.93 14.93 0 0 0-5.69 6.52L62.59 189c1.58-3.45 4.34-4.71 6.7-6.07l223-128.43a6.76 6.76 0 0 1 3.06-1.09 7 7 0 0 1 3.23.44z" transform="translate(-5.55 -26.35)"/><path class="cls-13" d="M92.65 390.38c-2.21-.88-3.85-3.19-4.33-6.52L61.93 199.05c-.54-3.78-.72-7.18.66-10.05l7.19 3.06c-.18.38-.36.79-.53 1.21s-.24.66-.35 1v.15a11.83 11.83 0 0 0-.34 1.16 11.09 11.09 0 0 0-.26 1.22 5.94 5.94 0 0 0-.13.93 14.37 14.37 0 0 0 0 3.93l26.52 185.72c.47 3.37 2.15 5.68 4.42 6.57z" transform="translate(-5.55 -26.35)"/><path class="cls-14" d="m298.49 57.13-225 129.38C68.56 189.35 67 194 67.88 200l26.76 187.39c.89 6.07 5.58 8.68 10.51 5.83l223-128.41c4.93-2.84 8.23-10.05 7.35-16.12L309 63c-.86-6.1-5.57-8.71-10.51-5.87z" transform="translate(-5.55 -26.35)"/><path class="cls-13" d="M314.48 264 115.41 378.62c-2.56 1.47-5 .12-5.45-3L83.71 191.75a8.85 8.85 0 0 1 3.81-8.36L286.58 68.8c2.56-1.48 5-.13 5.45 3l26.26 183.81a8.85 8.85 0 0 1-3.81 8.39z" transform="translate(-5.55 -26.35)"/><path class="cls-2" d="M83.71 191.75 110 375.56a.68.68 0 0 0 .07.36L309.1 261.3a8.84 8.84 0 0 0 3.81-8.35L286.58 68.8 87.52 183.39a8.85 8.85 0 0 0-3.81 8.36z" transform="translate(-5.55 -26.35)"/><path class="cls-13" d="M93.86 305.56a4.46 4.46 0 0 1-1.92 4.21c-1.29.74-2.51.06-2.73-1.53a4.38 4.38 0 0 1 .36-2.37 4.51 4.51 0 0 1 1.55-1.87c1.29-.7 2.51 0 2.74 1.56zM85.16 262.52a3.46 3.46 0 0 0-1.5 3.27L88 296.05c.18 1.23 1.13 1.77 2.13 1.18a3.41 3.41 0 0 0 1.21-1.42 3.51 3.51 0 0 0 .29-1.84l-4.35-30.25c-.17-1.25-1.12-1.72-2.12-1.2z" transform="translate(-5.55 -26.35)"/><path class="cls-9" d="M286.58 68.8 87.52 183.39a8.85 8.85 0 0 0-3.81 8.36l.88 6.09 203.69-117.3z" transform="translate(-5.55 -26.35)"/><path class="cls-3" d="M270.68 86.29c-.75.43-1.47 0-1.6-.89l-.08-.52a2.62 2.62 0 0 1 .23-1.38 2.6 2.6 0 0 1 .89-1.08 1 1 0 0 1 1.61.89l.07.52a2.52 2.52 0 0 1-.21 1.38 2.58 2.58 0 0 1-.91 1.08zM276.16 83.13c-.76.44-1.47 0-1.61-.88l-.07-.51a2.74 2.74 0 0 1 .22-1.39 2.58 2.58 0 0 1 .91-1.08c.75-.44 1.46 0 1.6.88l.08.52a2.62 2.62 0 0 1-.23 1.38 2.56 2.56 0 0 1-.9 1.08zM281.64 80a1 1 0 0 1-1.6-.88l-.08-.52a2.7 2.7 0 0 1 .23-1.4 2.64 2.64 0 0 1 .92-1.07 1 1 0 0 1 1.61.88l.07.51a2.65 2.65 0 0 1-1.15 2.48z" transform="translate(-5.55 -26.35)"/><path d="m172.65 172.16 92.2-53.09a.52.52 0 0 1 .27-.1.46.46 0 0 1 .28 0 .58.58 0 0 1 .23.18.63.63 0 0 1 .1.27l12.51 87.13a1.46 1.46 0 0 1-.67 1.3L185.37 261a.63.63 0 0 1-.27.1.57.57 0 0 1-.29 0 .55.55 0 0 1-.22-.18.57.57 0 0 1-.11-.27L172 173.45a1.37 1.37 0 0 1 .67-1.29z" transform="translate(-5.55 -26.35)" class="cls-15"/><path class="cls-9" d="M271.2 121.84a1.25 1.25 0 0 0-.51 0 1.14 1.14 0 0 0-.47.19l-91 52.39a2.52 2.52 0 0 0-.91 1 2.48 2.48 0 0 0-.27 1.31l12.37 85.95a1.05 1.05 0 0 0 .16.48 1 1 0 0 0 .36.33c-.27-.13-2.7-1.14-3-1.27a1 1 0 0 1-.38-.33 1 1 0 0 1-.17-.48l-12.37-86a2.48 2.48 0 0 1 1.18-2.29l91-52.4a1.17 1.17 0 0 1 .52-.19 1.11 1.11 0 0 1 .54.07c.27.11 2.38.98 2.95 1.24z" transform="translate(-5.55 -26.35)"/><g class="cls-15"><path class="cls-3" d="M271.2 121.84a100.9 100.9 0 0 0-2.95-1.24 1.11 1.11 0 0 0-.54-.07 1.21 1.21 0 0 0-.52.19l-91 52.4a2.57 2.57 0 0 0-.88 1l3 1.28a2.43 2.43 0 0 1 .88-1l91-52.39a1.14 1.14 0 0 1 .47-.19 1.2 1.2 0 0 1 .54.02z" transform="translate(-5.55 -26.35)"/></g><path class="cls-9" d="m179.22 174.4 91-52.39c.78-.45 1.5-.14 1.61.68l12.38 86a2.54 2.54 0 0 1-1.18 2.29l-91 52.39c-.77.44-1.49.14-1.61-.68l-12.38-86a2.49 2.49 0 0 1 .28-1.31 2.45 2.45 0 0 1 .9-.98z" transform="translate(-5.55 -26.35)"/><path class="cls-3" d="m179.22 174.4 91-52.39c.78-.45 1.5-.14 1.61.68l12.38 86a2.54 2.54 0 0 1-1.18 2.29l-91 52.39c-.77.44-1.49.14-1.61-.68l-12.38-86a2.49 2.49 0 0 1 .28-1.31 2.45 2.45 0 0 1 .9-.98z" transform="translate(-5.55 -26.35)" style="opacity:.7"/><path class="cls-9" d="m178.3 175.4-3-1.27a2.19 2.19 0 0 0-.25 1.28l12.37 86a1 1 0 0 0 .17.48 1 1 0 0 0 .38.33c.3.13 2.73 1.14 3 1.27a1 1 0 0 1-.37-.33 1 1 0 0 1-.15-.48l-12.38-85.95a2.24 2.24 0 0 1 .23-1.33z" transform="translate(-5.55 -26.35)"/><path class="cls-11" d="m178.3 175.4-3-1.27a2.19 2.19 0 0 0-.25 1.28l12.37 86a1 1 0 0 0 .17.48 1 1 0 0 0 .38.33c.3.13 2.73 1.14 3 1.27a1 1 0 0 1-.37-.33 1 1 0 0 1-.15-.48l-12.38-85.95a2.24 2.24 0 0 1 .23-1.33z" transform="translate(-5.55 -26.35)"/><path class="cls-9" d="M271 122.4c.13 0 .17.28.18.31l12.38 86a2 2 0 0 1-.88 1.77l-91.06 52.4a1 1 0 0 1-.31.11c-.13 0-.18-.29-.18-.33l-12.38-86a1.94 1.94 0 0 1 .21-1 1.92 1.92 0 0 1 .68-.76l91-52.4a.82.82 0 0 1 .31-.11m-.09-.59a1.28 1.28 0 0 0-.65.21l-91 52.39a2.52 2.52 0 0 0-.91 1 2.48 2.48 0 0 0-.27 1.31l12.37 86a.94.94 0 0 0 .08.36.86.86 0 0 0 .21.29.8.8 0 0 0 .32.19.87.87 0 0 0 .36 0 1.3 1.3 0 0 0 .64-.2L283 211a2.52 2.52 0 0 0 1.19-2.29l-12.38-86a.86.86 0 0 0-.07-.36.89.89 0 0 0-.22-.3.87.87 0 0 0-.31-.18.9.9 0 0 0-.36 0z" transform="translate(-5.55 -26.35)"/><path class="cls-12" d="M207.67 168.67a4.15 4.15 0 0 1 1.52-.59 2.58 2.58 0 0 1 1.17.08 1.74 1.74 0 0 1 .78.55 1.84 1.84 0 0 1 .38.81.53.53 0 0 1-.05.35.58.58 0 0 1-.23.26l-.88.51a.33.33 0 0 1-.16.07.37.37 0 0 1-.18 0 .53.53 0 0 1-.23-.16 1.06 1.06 0 0 0-.66-.34 2.06 2.06 0 0 0-1.18.37 3.43 3.43 0 0 0-.61.45 2.45 2.45 0 0 0-.48.54 1.91 1.91 0 0 0-.29.59 1.51 1.51 0 0 0 0 .6.9.9 0 0 0 .2.51.72.72 0 0 0 .21.12h.24a3.11 3.11 0 0 0 .8-.13l1.2-.34a7 7 0 0 1 1.36-.28 2 2 0 0 1 1 .14 1.42 1.42 0 0 1 .64.57 2.89 2.89 0 0 1 .33 1 3.82 3.82 0 0 1-.07 1.43 4.79 4.79 0 0 1-.56 1.43 6.53 6.53 0 0 1-1.06 1.33 6.89 6.89 0 0 1-1.47 1.12 5 5 0 0 1-1.38.57 3 3 0 0 1-1.22 0 1.77 1.77 0 0 1-.94-.48 2 2 0 0 1-.51-1 .5.5 0 0 1 0-.36.56.56 0 0 1 .22-.26l.89-.5a.48.48 0 0 1 .33-.1.36.36 0 0 1 .23.17 1.48 1.48 0 0 0 .28.28.68.68 0 0 0 .38.16 1.78 1.78 0 0 0 .57-.06 3.15 3.15 0 0 0 .82-.36 4.91 4.91 0 0 0 .71-.48 3 3 0 0 0 .58-.59 2.48 2.48 0 0 0 .37-.65 1.31 1.31 0 0 0 .09-.68.57.57 0 0 0-.08-.26.47.47 0 0 0-.18-.19 1 1 0 0 0-.58-.08 6.84 6.84 0 0 0-.89.23c-.37.11-.79.22-1.27.34a4.61 4.61 0 0 1-1.16.19 1.57 1.57 0 0 1-.88-.17 1.39 1.39 0 0 1-.59-.61 3.86 3.86 0 0 1-.32-1.1 3.81 3.81 0 0 1 .08-1.43 5.46 5.46 0 0 1 .53-1.41 6.88 6.88 0 0 1 1-1.26 5.66 5.66 0 0 1 1.2-.9zM214.71 176.47a.33.33 0 0 1-.13 0 .28.28 0 0 1-.13 0 .22.22 0 0 1-.1-.09.23.23 0 0 1 0-.14l-1.43-10a.62.62 0 0 1 .05-.36.56.56 0 0 1 .22-.26l1-.58a.2.2 0 0 1 .13 0 .19.19 0 0 1 .12 0 .21.21 0 0 1 .11.1.65.65 0 0 1 0 .13l1.43 10a.61.61 0 0 1-.06.35.51.51 0 0 1-.22.26zM216.73 167.93a7.08 7.08 0 0 1 0-1.84 6.12 6.12 0 0 1 1.59-3.25 7.31 7.31 0 0 1 1.58-1.25 5 5 0 0 1 1.85-.69 2.36 2.36 0 0 1 1.26.19 1.66 1.66 0 0 1 .73.66 3 3 0 0 1 .32.76.48.48 0 0 1-.05.35.58.58 0 0 1-.23.26l-1 .59H222.55a.29.29 0 0 1-.15-.12 1.54 1.54 0 0 0-.17-.19.86.86 0 0 0-.33-.23 1.83 1.83 0 0 0-.66 0 2.43 2.43 0 0 0-1 .36 3.61 3.61 0 0 0-1.78 3.52 10.15 10.15 0 0 0 .15 1.27c.06.45.14.88.22 1.24.14.84.43 1.35.88 1.51a1.79 1.79 0 0 0 .83 0 1.84 1.84 0 0 0 .76-.33 4.18 4.18 0 0 0 .83-.62 3 3 0 0 0 1-1.76 4.09 4.09 0 0 0 0-1.21v-.12l-1.53.88a.33.33 0 0 1-.13 0 .28.28 0 0 1-.13 0 .32.32 0 0 1-.1-.1.33.33 0 0 1 0-.14l-.16-1.09a.53.53 0 0 1 .06-.35.56.56 0 0 1 .22-.26l2.88-1.67a.33.33 0 0 1 .13 0 .28.28 0 0 1 .13 0 .24.24 0 0 1 .1.1.22.22 0 0 1 0 .13l.25 1.7a7.08 7.08 0 0 1 0 1.84 6.22 6.22 0 0 1-1.59 3.32 6.73 6.73 0 0 1-1.63 1.28 4.58 4.58 0 0 1-1.7.65 2.16 2.16 0 0 1-1.3-.2 2.26 2.26 0 0 1-.88-.88 4.9 4.9 0 0 1-.51-1.54c0-.2-.07-.41-.11-.64s-.08-.47-.11-.72-.07-.49-.1-.73-.17-.47-.19-.68zM232.61 166.15c-.14.09-.26.11-.35 0l-.19-.12-4.42-4.41.88 6.36a.6.6 0 0 1-.05.35.63.63 0 0 1-.22.26l-1 .59a.28.28 0 0 1-.13 0 .25.25 0 0 1-.12 0 .27.27 0 0 1-.11-.1.57.57 0 0 1 0-.14l-1.42-9.93a.6.6 0 0 1 .05-.35.67.67 0 0 1 .23-.27l.88-.5a.33.33 0 0 1 .16-.07.28.28 0 0 1 .18 0l.2.12 4.42 4.41-.89-6.36a.7.7 0 0 1 .06-.35.68.68 0 0 1 .22-.26l1-.58a.33.33 0 0 1 .13 0 .28.28 0 0 1 .13 0 .32.32 0 0 1 .1.1.23.23 0 0 1 0 .14l1.43 10a.58.58 0 0 1-.05.34.51.51 0 0 1-.22.26zM239 162.48a.2.2 0 0 1-.13 0 .17.17 0 0 1-.12 0 .24.24 0 0 1-.11-.09.33.33 0 0 1 0-.14l-1.43-10a.74.74 0 0 1 .05-.36.64.64 0 0 1 .23-.26l1-.58a.22.22 0 0 1 .13 0 .2.2 0 0 1 .13 0 .24.24 0 0 1 .1.1.34.34 0 0 1 .05.14l1.42 10a.6.6 0 0 1-.05.35.56.56 0 0 1-.22.26zM248 157.29a.51.51 0 0 1-.17.07.41.41 0 0 1-.19 0l-.19-.12-4.45-4.43.88 6.35a.54.54 0 0 1-.06.35.51.51 0 0 1-.22.26l-1 .59a.24.24 0 0 1-.12 0 .28.28 0 0 1-.13 0 .32.32 0 0 1-.1-.1.25.25 0 0 1 0-.14l-1.44-10a.61.61 0 0 1 .07-.35.51.51 0 0 1 .22-.26l.9-.51a.34.34 0 0 1 .17-.05.37.37 0 0 1 .18.05.8.8 0 0 1 .19.13l4.42 4.41-.88-6.36a.57.57 0 0 1 .06-.36.45.45 0 0 1 .22-.25l1-.59a.19.19 0 0 1 .12 0 .2.2 0 0 1 .13 0 .22.22 0 0 1 .1.09.23.23 0 0 1 0 .14l1.44 10a.77.77 0 0 1-.07.36.55.55 0 0 1-.22.26z" transform="translate(-5.55 -26.35)"/><path class="cls-9" d="M215.77 223.23a1.2 1.2 0 0 1 .5-.23 1.32 1.32 0 0 1 .56 0 1 1 0 0 1 .35.36.89.89 0 0 1 .13.48 1.87 1.87 0 0 1-.06.88 1.91 1.91 0 0 1-.44.8l.95 1.18v.06a.18.18 0 0 1-.07.21l-.45.26c-.07 0-.12.05-.16 0a.27.27 0 0 1-.08-.07l-.89-1.12-.7.41.22 1.51a.33.33 0 0 1 0 .14.17.17 0 0 1-.09.11l-.43.25H215a.13.13 0 0 1 0-.06l-.61-4.18v-.15a.32.32 0 0 1 .1-.1zm-.5 2.49.76-.44a1.27 1.27 0 0 0 .46-.4.8.8 0 0 0 .12-.6c0-.24-.13-.37-.25-.38a1 1 0 0 0-.51.16l-.75.44zM218 225a3.05 3.05 0 0 1 0-.74 3.25 3.25 0 0 1 .17-.7 3 3 0 0 1 .36-.6 1.73 1.73 0 0 1 .52-.45 1.09 1.09 0 0 1 .55-.18.93.93 0 0 1 .46.12 1 1 0 0 1 .33.38 1.72 1.72 0 0 1 .19.58v.29a.19.19 0 0 1-.1.25l-1.77 1a.65.65 0 0 0 .09.23.34.34 0 0 0 .17.11.37.37 0 0 0 .21 0 .67.67 0 0 0 .23-.1 1 1 0 0 0 .27-.19.83.83 0 0 0 .16-.21.5.5 0 0 1 .08-.12.25.25 0 0 1 .1-.08l.42-.24h.11v.05a.93.93 0 0 1-.05.29 2.17 2.17 0 0 1-.19.41 3.68 3.68 0 0 1-.34.44 1.65 1.65 0 0 1-.51.4 1.19 1.19 0 0 1-.55.18.76.76 0 0 1-.46-.12 1.1 1.1 0 0 1-.34-.4 2.14 2.14 0 0 1-.11-.6zm1.15-1.76a1 1 0 0 0-.25.21.78.78 0 0 0-.16.24 1.14 1.14 0 0 0-.09.26.88.88 0 0 0 0 .23l1.19-.68a1.34 1.34 0 0 0-.07-.18.29.29 0 0 0-.13-.14.28.28 0 0 0-.18 0 .81.81 0 0 0-.31.1zM222.77 223.08s0-.08-.05-.09a.17.17 0 0 0-.14 0l-.26.07-.43.09a1.4 1.4 0 0 1-.41.06.44.44 0 0 1-.27-.09.39.39 0 0 1-.18-.22 1.89 1.89 0 0 1-.09-.34 1.48 1.48 0 0 1 0-.42 2 2 0 0 1 .17-.46 2.13 2.13 0 0 1 .31-.43 1.83 1.83 0 0 1 .44-.35 2 2 0 0 1 .47-.2 1.15 1.15 0 0 1 .37 0 .51.51 0 0 1 .26.14.73.73 0 0 1 .14.26.38.38 0 0 1 0 .15l-.09.11-.41.23h-.22a.17.17 0 0 0-.14 0 .63.63 0 0 0-.24.09 1 1 0 0 0-.27.22.32.32 0 0 0-.09.28.09.09 0 0 0 0 .05h.13l.23-.05.39-.12a.92.92 0 0 1 .36-.07.89.89 0 0 1 .36.07.82.82 0 0 1 .2.25.64.64 0 0 1 .08.3 1 1 0 0 1 0 .42 1.41 1.41 0 0 1-.17.46 2.46 2.46 0 0 1-.34.44 2 2 0 0 1-.48.38 1.71 1.71 0 0 1-.5.21.9.9 0 0 1-.4 0 .54.54 0 0 1-.26-.16.59.59 0 0 1-.14-.27.38.38 0 0 1 0-.15.35.35 0 0 1 .1-.11l.41-.23a.13.13 0 0 1 .12 0h.1a.22.22 0 0 0 .16 0 .64.64 0 0 0 .27-.11l.16-.11.15-.12.11-.15a.24.24 0 0 0 .09-.03zM223.74 221.72a3 3 0 0 1 0-.73 2.85 2.85 0 0 1 .18-.71 2.47 2.47 0 0 1 .35-.61 2.21 2.21 0 0 1 .52-.44 1.28 1.28 0 0 1 .55-.18.84.84 0 0 1 .46.13 1 1 0 0 1 .34.37 2 2 0 0 1 .18.58v.29a.17.17 0 0 1 0 .14.22.22 0 0 1-.09.12l-1.76 1a.63.63 0 0 0 .08.23.31.31 0 0 0 .16.12.81.81 0 0 0 .22 0 .94.94 0 0 0 .23-.1 1.71 1.71 0 0 0 .27-.2 1.16 1.16 0 0 0 .16-.21l.08-.12a.39.39 0 0 1 .1-.08l.42-.24h.11a.14.14 0 0 1 0 .06 1.4 1.4 0 0 1-.06.28 1.65 1.65 0 0 1-.18.41 2.48 2.48 0 0 1-.35.45 1.92 1.92 0 0 1-.5.39 1.17 1.17 0 0 1-.55.19.71.71 0 0 1-.46-.13 1.1 1.1 0 0 1-.34-.4 1.91 1.91 0 0 1-.12-.61zm1.15-1.71a1.21 1.21 0 0 0-.26.2 1.28 1.28 0 0 0-.15.25.62.62 0 0 0-.09.26v.28l1.19-.69-.07-.17a.44.44 0 0 0-.12-.15.45.45 0 0 0-.2 0 .84.84 0 0 0-.3.01zM227.89 219.84a.4.4 0 0 0 0 .15.52.52 0 0 0 .1.11c.07.06.18 0 .33-.06l.33-.18h.06l.06.44a.33.33 0 0 1 0 .14.26.26 0 0 1-.1.11l-.38.22a.86.86 0 0 1-.38.17.85.85 0 0 1-.42 0c-.21-.09-.34-.34-.4-.75l-.2-1.39-.35.2h-.1a.1.1 0 0 1-.05 0 .13.13 0 0 1 0-.06l-.07-.42a.38.38 0 0 1 0-.15.2.2 0 0 1 .09-.11l.36-.2-.16-1.06a.33.33 0 0 1 0-.14.31.31 0 0 1 .09-.11l.4-.23h.11a.08.08 0 0 1 0 .06l.15 1 .68-.38h.11l.06.44a.33.33 0 0 1 0 .14.26.26 0 0 1-.1.11l-.67.39zM231.61 214.11a1.18 1.18 0 0 1 .5-.22 1.23 1.23 0 0 1 .54 0c.28.11.44.4.51.88a2.06 2.06 0 0 1-.2 1.29 2.18 2.18 0 0 1-.88.95l-.89.48.22 1.45v.15a.24.24 0 0 1-.1.1l-.43.25h-.05l-.05-.05v-.06l-.6-4.17a.19.19 0 0 1 0-.15.18.18 0 0 1 .09-.1zm-.54 2.59.81-.47a1.17 1.17 0 0 0 .46-.42.9.9 0 0 0 .11-.62.37.37 0 0 0-.25-.4.89.89 0 0 0-.5.15l-.82.46zM233.7 215.06a2.14 2.14 0 0 1 .06-.35 1.84 1.84 0 0 1 .48-.83 2.16 2.16 0 0 1 .45-.36 1.37 1.37 0 0 1 .51-.19.68.68 0 0 1 .4 0 .6.6 0 0 1 .3.29 1.49 1.49 0 0 1 .17.53l.28 1.91a.38.38 0 0 1 0 .15.24.24 0 0 1-.1.1l-.4.23h-.05a.1.1 0 0 1-.05 0v-.27a1.86 1.86 0 0 1-.27.5 1.66 1.66 0 0 1-.51.44 1.52 1.52 0 0 1-.42.16.54.54 0 0 1-.33 0 .58.58 0 0 1-.23-.21 1 1 0 0 1-.13-.36 1.44 1.44 0 0 1 .16-.89 2.67 2.67 0 0 1 .65-.73l.83-.68a.27.27 0 0 0-.2-.29.6.6 0 0 0-.37.09.79.79 0 0 0-.2.17.82.82 0 0 0-.12.2l-.08.12a.3.3 0 0 1-.08.08l-.49.28h-.15zm1.15 1.31a1.13 1.13 0 0 0 .3-.24 1.61 1.61 0 0 0 .21-.3 1.15 1.15 0 0 0 .11-.31.71.71 0 0 0 0-.29l-.7.56a1.42 1.42 0 0 0-.29.31.49.49 0 0 0-.06.29.13.13 0 0 0 .14.14.65.65 0 0 0 .29-.16zM238.43 214a.17.17 0 0 0-.14 0 1.22 1.22 0 0 0-.26.06l-.4.12a1.45 1.45 0 0 1-.41.06.54.54 0 0 1-.28-.08.6.6 0 0 1-.17-.22 1.06 1.06 0 0 1-.09-.35 1.48 1.48 0 0 1 0-.42 1.74 1.74 0 0 1 .17-.45 1.84 1.84 0 0 1 .3-.43 1.74 1.74 0 0 1 .45-.36 1.29 1.29 0 0 1 .47-.19.77.77 0 0 1 .37 0 .51.51 0 0 1 .4.4.38.38 0 0 1 0 .15.19.19 0 0 1-.1.1l-.41.24h-.22a.29.29 0 0 0-.13 0 .8.8 0 0 0-.25.11.75.75 0 0 0-.26.21.35.35 0 0 0-.08.13.39.39 0 0 0 0 .15.31.31 0 0 0 .05.1h.13l.24-.05.39-.12a.85.85 0 0 1 .35-.08.86.86 0 0 1 .36.08.68.68 0 0 1 .2.24.61.61 0 0 1 .08.3 1 1 0 0 1 0 .42 2 2 0 0 1-.17.46 2.15 2.15 0 0 1-.82.82 1.94 1.94 0 0 1-.5.2.9.9 0 0 1-.4 0 .57.57 0 0 1-.4-.43.38.38 0 0 1 0-.15.52.52 0 0 1 .1-.11l.4-.23h.12l.11.05h.16a.54.54 0 0 0 .27-.11l.16-.1.15-.13a.72.72 0 0 0 .11-.15.4.4 0 0 0-.05-.24zM241.16 212.47v-.06a.17.17 0 0 0-.14 0 1 1 0 0 0-.25.06l-.4.12a2 2 0 0 1-.42.07.62.62 0 0 1-.27-.09.46.46 0 0 1-.17-.22 1.31 1.31 0 0 1-.09-.34 1.48 1.48 0 0 1 0-.42 1.5 1.5 0 0 1 .17-.46 1.84 1.84 0 0 1 .3-.43 1.55 1.55 0 0 1 .45-.36 1.6 1.6 0 0 1 .47-.19.77.77 0 0 1 .37 0 .51.51 0 0 1 .26.14.5.5 0 0 1 .13.26.17.17 0 0 1 0 .07.22.22 0 0 1 0 .08.35.35 0 0 1-.1.11l-.4.23c-.06 0-.09.05-.13 0h-.24a.86.86 0 0 0-.24.11 1.13 1.13 0 0 0-.27.22.27.27 0 0 0-.07.13.32.32 0 0 0 0 .14v.11h.36l.39-.13a.92.92 0 0 1 .36-.07.89.89 0 0 1 .36.07.79.79 0 0 1 .21.24.64.64 0 0 1 .08.3 1 1 0 0 1 0 .42 1.76 1.76 0 0 1-.18.47 2 2 0 0 1-.33.44 2.18 2.18 0 0 1-.49.37 1.48 1.48 0 0 1-.5.21 1.28 1.28 0 0 1-.39 0 .74.74 0 0 1-.27-.16.56.56 0 0 1-.13-.28.33.33 0 0 1 0-.14.35.35 0 0 1 .1-.11l.41-.23h.38a1 1 0 0 0 .28-.11l.16-.11.15-.13a.45.45 0 0 0 .1-.14.21.21 0 0 0 .06-.1.34.34 0 0 0-.07-.09zM245 209.85l.2-2.12v-.13a.16.16 0 0 1 0-.07.15.15 0 0 1 .06-.05l.4-.23H245.81a.13.13 0 0 1 0 .06l-.37 3.44a.33.33 0 0 1 0 .14.27.27 0 0 1-.09.12l-.4.22h-.12l-.06-.08-.76-1.43-.26 2v.14a.25.25 0 0 1 0 .07h-.06l-.4.23h-.06a.22.22 0 0 1-.07-.09l-1.22-2.52a.33.33 0 0 1 0-.14.29.29 0 0 1 .1-.12l.4-.23h.11l.06.08.74 1.58.24-2.14a.28.28 0 0 1 0-.13.17.17 0 0 1 .09-.11l.39-.23h.06a.18.18 0 0 1 .07.08zM247.52 206.15a1.24 1.24 0 0 1 .53-.18.7.7 0 0 1 .45.07.82.82 0 0 1 .35.29 1.34 1.34 0 0 1 .19.48v.66a2.37 2.37 0 0 1-.25 1.23 2.67 2.67 0 0 1-.36.54 2 2 0 0 1-.51.4 1.31 1.31 0 0 1-.54.2.78.78 0 0 1-.79-.36 1.28 1.28 0 0 1-.19-.49v-.32a.54.54 0 0 1 0-.18.38.38 0 0 1 0-.15 2.22 2.22 0 0 1 .25-1.24 2.67 2.67 0 0 1 .36-.54 2.24 2.24 0 0 1 .51-.41zm.88 1.09a.56.56 0 0 0-.12-.29.38.38 0 0 0-.18-.12.37.37 0 0 0-.21 0 1 1 0 0 0-.22.09l-.21.16a.79.79 0 0 0-.18.22.93.93 0 0 0-.12.29 1.21 1.21 0 0 0 0 .38v.3a.43.43 0 0 0 0 .16v.12a.81.81 0 0 0 .12.29.36.36 0 0 0 .18.12.26.26 0 0 0 .21 0 .85.85 0 0 0 .22-.09.8.8 0 0 0 .21-.15 1.24 1.24 0 0 0 .18-.22 1.22 1.22 0 0 0 .15-.67v-.46a.59.59 0 0 1-.11-.1zM250.81 205.14a1 1 0 0 0-.49 1.08l.24 1.69a.17.17 0 0 1 0 .14.26.26 0 0 1-.1.11l-.39.23h-.06a.14.14 0 0 1 0-.06l-.43-3a.2.2 0 0 1 0-.15.17.17 0 0 1 .09-.11l.4-.24h.11a.14.14 0 0 1 0 .06v.11a2.57 2.57 0 0 1 .26-.41 1.34 1.34 0 0 1 .39-.32l.24-.13h.06l.06.44a.19.19 0 0 1 0 .15.28.28 0 0 1-.09.1zM252.62 203.2a1.55 1.55 0 0 1 .29-.14h.44l.12.07-.19-1.38a.2.2 0 0 1 0-.15.24.24 0 0 1 .09-.11l.4-.23h.06l.61 4.24a.19.19 0 0 1 0 .15.16.16 0 0 1 0 .07l-.41.23h-.1v-.21a1.08 1.08 0 0 1-.08.19l-.15.23a2.28 2.28 0 0 1-.22.22 1.46 1.46 0 0 1-.28.21 1.08 1.08 0 0 1-.49.15.77.77 0 0 1-.42-.13 1 1 0 0 1-.31-.31 1.61 1.61 0 0 1-.18-.52v-.45a3.31 3.31 0 0 1 0-.63 3.35 3.35 0 0 1 .17-.62 2.33 2.33 0 0 1 .32-.55 1.49 1.49 0 0 1 .33-.33zm-.26 1.84a1.49 1.49 0 0 0 0 .36.45.45 0 0 0 .53.51.58.58 0 0 0 .23-.09 1.08 1.08 0 0 0 .41-.44 1.2 1.2 0 0 0 .12-.65 1.13 1.13 0 0 0 0-.26.88.88 0 0 0 0-.23.5.5 0 0 0-.09-.24.77.77 0 0 0-.18-.18.52.52 0 0 0-.47.05 1 1 0 0 0-.41.45 1.28 1.28 0 0 0-.14.68zM221.89 231.08a1.77 1.77 0 0 1 .64-.24 1.35 1.35 0 0 1 .49 0 .62.62 0 0 1 .32.23.73.73 0 0 1 .16.33.19.19 0 0 1 0 .15.18.18 0 0 1-.09.12l-.37.21a.17.17 0 0 1-.14 0 .23.23 0 0 1-.1-.07.42.42 0 0 0-.28-.14.86.86 0 0 0-.49.15 1.5 1.5 0 0 0-.25.19 1 1 0 0 0-.2.22 2 2 0 0 0-.13.25.53.53 0 0 0 0 .25.35.35 0 0 0 .08.22.35.35 0 0 0 .2.07l.32-.07.51-.14a3.59 3.59 0 0 1 .57-.11.87.87 0 0 1 .42.05.57.57 0 0 1 .26.25 1 1 0 0 1 .14.43 1.52 1.52 0 0 1 0 .6 1.91 1.91 0 0 1-.23.6 2.41 2.41 0 0 1-.45.56 2.85 2.85 0 0 1-.62.46 1.92 1.92 0 0 1-.57.24 1.1 1.1 0 0 1-.51 0 .78.78 0 0 1-.4-.21.79.79 0 0 1-.21-.43.2.2 0 0 1 0-.15.24.24 0 0 1 .09-.11l.38-.21a.18.18 0 0 1 .14 0 .13.13 0 0 1 .09.07l.12.11a.24.24 0 0 0 .16.07h.24a1.5 1.5 0 0 0 .34-.16 1.21 1.21 0 0 0 .3-.2 1 1 0 0 0 .24-.25.76.76 0 0 0 .16-.26.71.71 0 0 0 0-.29.2.2 0 0 0 0-.11.32.32 0 0 0-.08-.09.49.49 0 0 0-.24 0 2.48 2.48 0 0 0-.39.1l-.53.14a1.69 1.69 0 0 1-.5.08.65.65 0 0 1-.36-.07.6.6 0 0 1-.24-.26 1.45 1.45 0 0 1-.14-.46 1.94 1.94 0 0 1 0-.59 2.38 2.38 0 0 1 .29-.6 2.68 2.68 0 0 1 .41-.53 2.15 2.15 0 0 1 .45-.4zM224.54 229.5h.05a.1.1 0 0 1 .05 0v.05l.06.51a.19.19 0 0 1 0 .15.22.22 0 0 1-.09.1l-.45.27h-.11a.1.1 0 0 1 0-.05.14.14 0 0 1 0-.06L224 230a.2.2 0 0 1 0-.15.24.24 0 0 1 .09-.11zm.75 4.35a.38.38 0 0 1 0 .15.24.24 0 0 1-.09.11l-.4.23h-.11a.21.21 0 0 1-.06-.1l-.43-3a.19.19 0 0 1 0-.15v-.07h.06l.4-.24H224.81a.13.13 0 0 1 0 .06zM227.37 233.57l.22-.17a1.51 1.51 0 0 0 .18-.26 1.08 1.08 0 0 0 .14-.68v-.24l-.09.19a1.76 1.76 0 0 1-.14.23l-.22.22a1.27 1.27 0 0 1-.29.21 1.08 1.08 0 0 1-.49.15.74.74 0 0 1-.41-.13 1 1 0 0 1-.31-.35 1.89 1.89 0 0 1-.18-.52v-.45a3.31 3.31 0 0 1 0-.63 3.35 3.35 0 0 1 .17-.62 2.33 2.33 0 0 1 .32-.55 1.33 1.33 0 0 1 .46-.39 1.55 1.55 0 0 1 .29-.14h.43l.13.07v-.15a.38.38 0 0 1 0-.15.18.18 0 0 1 .1-.11l.39-.23h.11a.14.14 0 0 1 0 .06l.43 3a2.17 2.17 0 0 1-1.11 2.35 1.46 1.46 0 0 1-.5.2 1.09 1.09 0 0 1-.44 0 .79.79 0 0 1-.32-.18.75.75 0 0 1-.15-.31.17.17 0 0 1 0-.14.27.27 0 0 1 .09-.12l.36-.2h.14l.1.06a.27.27 0 0 0 .1.06.25.25 0 0 0 .12 0 1.05 1.05 0 0 0 .37-.08zm-1-2.15a1.47 1.47 0 0 0 0 .36c.07.27.17.43.3.49a.54.54 0 0 0 .47-.07 1.24 1.24 0 0 0 .41-.44 1.2 1.2 0 0 0 .12-.65 1 1 0 0 0 0-.25.43.43 0 0 0 0-.24.64.64 0 0 0-.1-.24.47.47 0 0 0-.19-.18.45.45 0 0 0-.23 0 .5.5 0 0 0-.23.09 1 1 0 0 0-.4.44 1.14 1.14 0 0 0-.14.69zM231.88 230.08a.33.33 0 0 1 0 .14.2.2 0 0 1-.09.11l-.4.23h-.06a.14.14 0 0 1 0-.06l-.24-1.64a.85.85 0 0 0-.23-.54.43.43 0 0 0-.48 0 .87.87 0 0 0-.41.48 1.27 1.27 0 0 0-.07.72l.23 1.64a.38.38 0 0 1 0 .15.35.35 0 0 1-.1.11l-.4.22h-.1v-.05l-.44-3a.38.38 0 0 1 0-.15v-.06l.41-.23h.1v.15a2.18 2.18 0 0 1 .28-.46 1.45 1.45 0 0 1 .41-.37 1.23 1.23 0 0 1 .56-.18.57.57 0 0 1 .4.13 1 1 0 0 1 .26.37 2.59 2.59 0 0 1 .13.55zM233.32 226a.38.38 0 0 1 0-.15.27.27 0 0 1 .09-.12l.4-.23h.11a.14.14 0 0 1 0 .06l.24 1.64a.87.87 0 0 0 .22.55.45.45 0 0 0 .48 0 .86.86 0 0 0 .38-.48 1.4 1.4 0 0 0 .07-.7l-.22-1.69a.2.2 0 0 1 0-.15.19.19 0 0 1 .09-.11l.39-.22a.1.1 0 0 1 .12 0 .43.43 0 0 1 0 .05l.43 3a.19.19 0 0 1 0 .15.22.22 0 0 1-.09.1l-.4.23h-.11v-.15a4 4 0 0 1-.27.44 1.22 1.22 0 0 1-.41.37 1.06 1.06 0 0 1-.55.18.62.62 0 0 1-.39-.14.88.88 0 0 1-.24-.38 2.52 2.52 0 0 1-.14-.54zM238.51 226.52a2.08 2.08 0 0 1-.3.13h-.42l-.13-.06.2 1.37a.19.19 0 0 1 0 .15.24.24 0 0 1-.09.11l-.4.23h-.11a.13.13 0 0 1 0-.06l-.61-4.24a.2.2 0 0 1 0-.15.17.17 0 0 1 .09-.11l.4-.24h.11a.14.14 0 0 1 0 .06v.15c0-.05.06-.11.1-.19a.86.86 0 0 1 .15-.22 1.15 1.15 0 0 1 .21-.23 1.86 1.86 0 0 1 .29-.22 1.08 1.08 0 0 1 .5-.15.68.68 0 0 1 .41.14.89.89 0 0 1 .3.34 1.63 1.63 0 0 1 .19.52v.45a3.31 3.31 0 0 1 0 .63 2.72 2.72 0 0 1-.17.62 2.29 2.29 0 0 1-.31.55 1.6 1.6 0 0 1-.41.42zm.27-1.85c0-.12 0-.24-.05-.36-.07-.27-.16-.43-.3-.48a.5.5 0 0 0-.24 0 .43.43 0 0 0-.22.09 1 1 0 0 0-.41.44 1.23 1.23 0 0 0-.13.65v.26a.45.45 0 0 0 0 .24.52.52 0 0 0 .1.23.45.45 0 0 0 .18.18.5.5 0 0 0 .24 0 .73.73 0 0 0 .22-.09 1 1 0 0 0 .42-.43 1.55 1.55 0 0 0 .19-.73zM244 223.08a.38.38 0 0 1 0 .15.26.26 0 0 1-.1.11l-.4.23h-.1a.1.1 0 0 1-.05 0 .13.13 0 0 1 0-.06l-.23-1.64a.92.92 0 0 0-.24-.54.5.5 0 0 0-.49 0 .9.9 0 0 0-.41.49 1.43 1.43 0 0 0-.07.71l.23 1.65a.17.17 0 0 1 0 .14.27.27 0 0 1-.09.12l-.4.23h-.11a.14.14 0 0 1 0-.06l-.43-3a.19.19 0 0 1 0-.15.31.31 0 0 1 .09-.11l.4-.23h.11a.13.13 0 0 1 0 .06v.15a2 2 0 0 1 .28-.47 1.44 1.44 0 0 1 .42-.36 1.25 1.25 0 0 1 .56-.19.66.66 0 0 1 .4.13.9.9 0 0 1 .25.38 2 2 0 0 1 .13.54zM245.46 218.74a1.31 1.31 0 0 1 .54-.2 1 1 0 0 1 .45.07 1.14 1.14 0 0 1 .35.3 1.39 1.39 0 0 1 .19.49v.65a2.67 2.67 0 0 1 0 .63 3.39 3.39 0 0 1-.21.61 2.3 2.3 0 0 1-.36.52 1.88 1.88 0 0 1-.51.42 1.35 1.35 0 0 1-.54.19.78.78 0 0 1-.45-.07.79.79 0 0 1-.34-.29 1.42 1.42 0 0 1-.19-.48v-.66a2.15 2.15 0 0 1 0-.62 2.21 2.21 0 0 1 .21-.61 2 2 0 0 1 .36-.54 1.93 1.93 0 0 1 .5-.41zm.89 1.08a.6.6 0 0 0-.13-.28.29.29 0 0 0-.18-.12.37.37 0 0 0-.21 0 1 1 0 0 0-.22.09l-.21.15a1.24 1.24 0 0 0-.18.22.94.94 0 0 0-.12.3 1.21 1.21 0 0 0 0 .38v.29a.48.48 0 0 0 0 .17v.12a1 1 0 0 0 .12.29.36.36 0 0 0 .19.13h.21l.22-.1.2-.15a.79.79 0 0 0 .19-.22 1.34 1.34 0 0 0 .12-.3 2.41 2.41 0 0 0 0-.38v-.59zM250.29 218.19l.2-2.12v-.19h.06l.41-.23h.05a.08.08 0 0 1 0 .05l-.38 3.44a.33.33 0 0 1 0 .14.2.2 0 0 1-.1.12l-.4.23h-.11l-.07-.09-.75-1.43-.26 2v.14a.29.29 0 0 1-.1.12l-.4.23h-.11l-.07-.09-1.08-2.51a.38.38 0 0 1 0-.15.35.35 0 0 1 .1-.11l.4-.23h.06l.06.08.74 1.58.24-2.14a.33.33 0 0 1 0-.14.22.22 0 0 1 .09-.1l.4-.23h.05z" transform="translate(-5.55 -26.35)"/><path class="cls-3" d="M271.14 165 190 211.73c-.46.27-.89 0-1-.53l-1.24-8.62a1.56 1.56 0 0 1 .13-.85 1.6 1.6 0 0 1 .56-.65l81.14-46.73c.46-.26.88 0 1 .54l1.24 8.62a1.6 1.6 0 0 1-.69 1.48z" transform="translate(-5.55 -26.35)"/><path class="cls-5" d="M194.42 204.92a.1.1 0 0 1 .12 0 .14.14 0 0 1 0 .06l.07.5a.38.38 0 0 1 0 .15.3.3 0 0 1 0 .08l-.06.05-2.52 1.47h-.11a.14.14 0 0 1-.07-.11l-.65-4.51a.22.22 0 0 1 0-.16.29.29 0 0 1 .1-.12l2.45-1.41a.1.1 0 0 1 .12 0 .14.14 0 0 1 0 .06l.07.5a.19.19 0 0 1 0 .15.27.27 0 0 1-.09.12l-1.84 1.06.15 1.11 1.72-1h.11a.14.14 0 0 1 0 .07l.07.49a.43.43 0 0 1 0 .16.4.4 0 0 1-.1.12l-1.71 1 .16 1.16zM195.15 203.62h-.11a.1.1 0 0 1 0-.05.11.11 0 0 1 0-.06l-.07-.46a.22.22 0 0 1 0-.16.29.29 0 0 1 .1-.12l1.77-1a.1.1 0 0 1 .12 0 .14.14 0 0 1 0 .06l.07.47a.38.38 0 0 1 0 .15.25.25 0 0 1-.11.12zM198.3 200.06a2 2 0 0 1 .28-.49 1.41 1.41 0 0 1 .39-.34 1 1 0 0 1 .61-.18.66.66 0 0 1 .43.23 1.42 1.42 0 0 1 .14-.36 3.45 3.45 0 0 1 .2-.32 2 2 0 0 1 .24-.26l.25-.19a1.12 1.12 0 0 1 .56-.18.65.65 0 0 1 .4.16 1.22 1.22 0 0 1 .27.41 3.75 3.75 0 0 1 .14.6l.26 1.88a.22.22 0 0 1 0 .16.31.31 0 0 1-.09.11l-.44.25h-.11a.12.12 0 0 1-.05 0v-.06l-.26-1.84a.65.65 0 0 0-.25-.58.45.45 0 0 0-.23 0 .34.34 0 0 0-.21.08.82.82 0 0 0-.36.4 1.34 1.34 0 0 0-.08.74l.26 1.88a.19.19 0 0 1 0 .15v.08l-.06.05-.44.24h-.11a.13.13 0 0 1 0-.06l-.27-1.84c0-.32-.12-.52-.25-.59a.45.45 0 0 0-.23 0 .43.43 0 0 0-.21.09 1 1 0 0 0-.37.42 1.37 1.37 0 0 0-.07.75l.26 1.84a.22.22 0 0 1 0 .16.15.15 0 0 1 0 .07l-.06.06-.44.24h-.06a.13.13 0 0 1-.06-.1l-.47-3.27a.22.22 0 0 1 0-.16.35.35 0 0 1 .1-.11l.43-.25h.11a.12.12 0 0 1 .05.05v.06zM202.86 198a2.2 2.2 0 0 1 .06-.37 3 3 0 0 1 .19-.45 2.19 2.19 0 0 1 .34-.46 2.34 2.34 0 0 1 .49-.39 1.76 1.76 0 0 1 .54-.2.82.82 0 0 1 .44 0 .71.71 0 0 1 .33.31 2 2 0 0 1 .18.58l.3 2a.43.43 0 0 1 0 .16.29.29 0 0 1-.1.12l-.43.24h-.12a.07.07 0 0 1 0-.06v-.23a2.35 2.35 0 0 1-.29.54 1.82 1.82 0 0 1-.56.47 1.28 1.28 0 0 1-.44.18.72.72 0 0 1-.36 0 .51.51 0 0 1-.25-.23.82.82 0 0 1-.13-.4 1.48 1.48 0 0 1 .16-.88 2.79 2.79 0 0 1 .69-.8l.89-.73c0-.19-.07-.3-.22-.32a.6.6 0 0 0-.39.11.55.55 0 0 0-.22.18.8.8 0 0 0-.13.22.47.47 0 0 1-.09.12.3.3 0 0 1-.08.08l-.53.31H203s-.14-.02-.14-.1zm1.24 1.43a2.16 2.16 0 0 0 .33-.27 1.72 1.72 0 0 0 .23-.32 2.06 2.06 0 0 0 .12-.35 1.61 1.61 0 0 0 0-.31v-.07l-.75.61a1.72 1.72 0 0 0-.32.34.47.47 0 0 0-.06.31.13.13 0 0 0 0 .06h.05a.06.06 0 0 0 .06 0 .64.64 0 0 0 .34.03zM206.4 193.58h.12v.06l.08.54a.41.41 0 0 1 0 .16.34.34 0 0 1-.09.12l-.49.28h-.16a.14.14 0 0 1 0-.07l-.08-.53a.43.43 0 0 1 0-.16.35.35 0 0 1 .11-.13zm.82 4.7a.43.43 0 0 1 0 .16.25.25 0 0 1-.11.12l-.43.25h-.12a.14.14 0 0 1 0-.06l-.53-3.26a.43.43 0 0 1 0-.16.35.35 0 0 1 .1-.11l.43-.25h.12a.14.14 0 0 1 0 .07zM208.74 197.41a.22.22 0 0 1 0 .16.35.35 0 0 1-.1.11l-.43.25h-.11v-.07l-.65-4.58a.22.22 0 0 1 0-.16.29.29 0 0 1 .1-.12l.43-.24h.06a.07.07 0 0 1 .05 0v.06z" transform="translate(-5.55 -26.35)"/><path class="cls-3" d="m273.7 182.72-81.15 46.74c-.46.27-.88 0-1-.54l-1.24-8.61a1.66 1.66 0 0 1 .13-.85 1.58 1.58 0 0 1 .55-.65l81.15-46.75c.45-.26.88 0 1 .54l1.24 8.62a1.63 1.63 0 0 1-.14.84 1.73 1.73 0 0 1-.54.66z" transform="translate(-5.55 -26.35)"/><path class="cls-5" d="M195.42 219.19a1.32 1.32 0 0 1 1.13-.22c.29.12.47.43.55.94a2.31 2.31 0 0 1-.21 1.39 2.59 2.59 0 0 1-1 1l-.88.53.23 1.55v.16a.32.32 0 0 1-.11.12l-.46.26a.07.07 0 0 1-.06 0h-.05a.14.14 0 0 1 0-.06l-.65-4.51a.43.43 0 0 1 0-.16.25.25 0 0 1 .11-.12zm-.58 2.79.88-.51a1.33 1.33 0 0 0 .49-.45 1 1 0 0 0 .12-.66c0-.27-.13-.41-.28-.43a.72.72 0 0 0-.53.15l-.89.5zM197.68 220.21a2.2 2.2 0 0 1 .06-.37 2.25 2.25 0 0 1 .19-.45 2.56 2.56 0 0 1 .33-.46 2.69 2.69 0 0 1 .5-.39 1.76 1.76 0 0 1 .54-.2.66.66 0 0 1 .44 0 .64.64 0 0 1 .32.31 1.46 1.46 0 0 1 .18.57l.3 2.07a.38.38 0 0 1 0 .15.25.25 0 0 1 0 .07l-.06.05-.43.25h-.12v-.05a.14.14 0 0 1 0-.06v-.23a2.16 2.16 0 0 1-.29.54 1.86 1.86 0 0 1-.56.48 1.29 1.29 0 0 1-.44.16.56.56 0 0 1-.61-.26.82.82 0 0 1-.13-.4 1.5 1.5 0 0 1 .16-.88 3 3 0 0 1 .69-.8l.89-.73c0-.19-.07-.3-.21-.31a.56.56 0 0 0-.4.09.74.74 0 0 0-.21.18 1.7 1.7 0 0 0-.15.22.26.26 0 0 1-.08.13l-.08.08-.53.3h-.16a.08.08 0 0 1-.14-.06zm1.24 1.42a1.4 1.4 0 0 0 .33-.27 1.19 1.19 0 0 0 .23-.31 1.42 1.42 0 0 0 .11-.35.81.81 0 0 0 0-.31v-.07l-.75.61a1.47 1.47 0 0 0-.32.34.44.44 0 0 0-.06.32v.05a.05.05 0 0 0 .05 0h.06a.77.77 0 0 0 .29-.1zM202.78 219.11a.14.14 0 0 0 0-.06.19.19 0 0 0-.15 0l-.28.07-.43.13a1.09 1.09 0 0 1-.44.06.46.46 0 0 1-.3-.08.55.55 0 0 1-.19-.24 2.37 2.37 0 0 1-.09-.36 1.19 1.19 0 0 1 0-.46 1.74 1.74 0 0 1 .17-.5 2.15 2.15 0 0 1 .33-.46 2 2 0 0 1 .48-.38 1.62 1.62 0 0 1 .51-.21.9.9 0 0 1 .4 0 .39.39 0 0 1 .28.15.54.54 0 0 1 .14.27.19.19 0 0 1 0 .08.24.24 0 0 1 0 .08.29.29 0 0 1-.1.12l-.44.25a.17.17 0 0 1-.14 0h-.25a.85.85 0 0 0-.26.11 1.09 1.09 0 0 0-.29.23.42.42 0 0 0-.09.14.43.43 0 0 0 0 .16v.12h.14l.25-.06.42-.13a1 1 0 0 1 .39-.08 1.09 1.09 0 0 1 .39.08.89.89 0 0 1 .21.26.62.62 0 0 1 .09.32 1.19 1.19 0 0 1 0 .46 1.81 1.81 0 0 1-.2.5 2.41 2.41 0 0 1-.36.48 2.2 2.2 0 0 1-.51.4 1.63 1.63 0 0 1-.55.22 1 1 0 0 1-.42 0 .59.59 0 0 1-.29-.18.47.47 0 0 1-.14-.29.2.2 0 0 1 0-.15.23.23 0 0 1 .1-.12l.44-.26h.25a.22.22 0 0 0 .16 0 .66.66 0 0 0 .3-.12l.17-.11a1.07 1.07 0 0 0 .16-.14.61.61 0 0 0 .12-.16.21.21 0 0 0 .02-.14zM205.73 217.4a.11.11 0 0 0 0-.05.19.19 0 0 0-.15 0 1.27 1.27 0 0 0-.28.06l-.43.13a1.17 1.17 0 0 1-.45.06.64.64 0 0 1-.3-.08.53.53 0 0 1-.18-.24 1.7 1.7 0 0 1-.09-.82 2.3 2.3 0 0 1 .18-.5 2.91 2.91 0 0 1 .32-.46 2 2 0 0 1 .49-.38 1.32 1.32 0 0 1 .5-.22.94.94 0 0 1 .41 0 .48.48 0 0 1 .28.15.62.62 0 0 1 .14.28.22.22 0 0 1 0 .16.31.31 0 0 1-.09.11l-.45.26a.29.29 0 0 1-.13 0h-.25a.81.81 0 0 0-.27.11 1.63 1.63 0 0 0-.29.23.42.42 0 0 0-.09.14.43.43 0 0 0 0 .16.31.31 0 0 0 .05.12h.14l.25-.06.43-.12a.85.85 0 0 1 .38-.09.86.86 0 0 1 .39.09.92.92 0 0 1 .22.26.9.9 0 0 1 .09.32 1.77 1.77 0 0 1 0 .46 1.74 1.74 0 0 1-.2.49 2.47 2.47 0 0 1-.36.49 2.88 2.88 0 0 1-.52.4 1.81 1.81 0 0 1-.54.22 1 1 0 0 1-.43 0 .59.59 0 0 1-.29-.18.61.61 0 0 1-.14-.29.19.19 0 0 1 0-.15.22.22 0 0 1 .11-.12l.43-.26h.13l.12.05h.14a.84.84 0 0 0 .31-.12.61.61 0 0 0 .16-.12l.17-.14.12-.16a.24.24 0 0 0-.03-.19zM209.84 214.58l.23-2.29a.33.33 0 0 1 0-.14.23.23 0 0 1 .1-.12l.43-.24h.12a.1.1 0 0 1 .05 0 .13.13 0 0 1 0 .06.05.05 0 0 1 0 .06l-.39 3.7a.38.38 0 0 1 0 .15.2.2 0 0 1-.1.12l-.44.25h-.11l-.07-.09-.82-1.55-.29 2.19v.15a.18.18 0 0 1-.1.11l-.44.26h-.12a.24.24 0 0 1-.06-.09l-1.33-2.73a.43.43 0 0 1 0-.16.22.22 0 0 1 .1-.11l.43-.25h.12l.07.09.79 1.7.26-2.32a.33.33 0 0 1 0-.14.18.18 0 0 1 .1-.11l.42-.25h.12a.27.27 0 0 1 .07.08zM212.57 210.6a1.32 1.32 0 0 1 .58-.22.91.91 0 0 1 .49.08 1.11 1.11 0 0 1 .36.32 1.67 1.67 0 0 1 .24.69v.53a2.53 2.53 0 0 1-.05.67 2.59 2.59 0 0 1-.23.66 2.46 2.46 0 0 1-.38.57 1.94 1.94 0 0 1-.55.44 1.56 1.56 0 0 1-.58.21.86.86 0 0 1-.85-.38 1.61 1.61 0 0 1-.22-.53V213a2.51 2.51 0 0 1 0-.67 3.65 3.65 0 0 1 .22-.66 3 3 0 0 1 .4-.58 1.89 1.89 0 0 1 .57-.49zm.88 1.17a.85.85 0 0 0-.13-.31.52.52 0 0 0-.19-.14.45.45 0 0 0-.23 0 1.33 1.33 0 0 0-.24.1 1.37 1.37 0 0 0-.23.17 1 1 0 0 0-.19.23 1 1 0 0 0-.13.33 1.34 1.34 0 0 0 0 .4v.14a.54.54 0 0 0 0 .18v.31a.61.61 0 0 0 .13.32.39.39 0 0 0 .2.13.41.41 0 0 0 .22 0 .86.86 0 0 0 .24-.11 1.5 1.5 0 0 0 .23-.15l.19-.24a1.51 1.51 0 0 0 .13-.33 1.41 1.41 0 0 0 0-.41.33.33 0 0 0 0-.14v-.48zM216.16 209.51a1.07 1.07 0 0 0-.47.47 1.35 1.35 0 0 0-.06.69l.26 1.81a.43.43 0 0 1 0 .16.29.29 0 0 1-.1.12l-.43.25H215.19a.13.13 0 0 1 0-.06l-.47-3.26a.22.22 0 0 1 0-.16.35.35 0 0 1 .1-.11l.43-.25h.12a.12.12 0 0 1 0 .05.13.13 0 0 1 0 .06v.16a1.83 1.83 0 0 1 .28-.44 1.57 1.57 0 0 1 .42-.35l.26-.15h.11a.08.08 0 0 1 0 .06l.07.46a.38.38 0 0 1 0 .15.29.29 0 0 1-.1.12zM218.11 207.4a1.22 1.22 0 0 1 .33-.14h.45l.14.07-.21-1.49a.22.22 0 0 1 0-.16.31.31 0 0 1 .09-.11l.44-.26h.11a.12.12 0 0 1 0 .05.11.11 0 0 1 0 .06l.66 4.58a.38.38 0 0 1 0 .15.32.32 0 0 1-.1.13l-.43.25h-.12v-.28l-.1.21a1.4 1.4 0 0 1-.15.24l-.22.3a2.18 2.18 0 0 1-.31.22 1.13 1.13 0 0 1-.53.16.74.74 0 0 1-.44-.13 1.23 1.23 0 0 1-.34-.38 2.35 2.35 0 0 1-.2-.56v-.49a2.7 2.7 0 0 1 .2-1.35 2.11 2.11 0 0 1 .34-.58 1.72 1.72 0 0 1 .39-.49zm-.28 2a2.32 2.32 0 0 0 0 .38c.07.3.18.47.33.52a.54.54 0 0 0 .25 0 .51.51 0 0 0 .24-.1 1.07 1.07 0 0 0 .45-.47 1.43 1.43 0 0 0 .13-.71v-.27a1.19 1.19 0 0 0-.05-.26.52.52 0 0 0-.1-.26.73.73 0 0 0-.2-.19.57.57 0 0 0-.26 0 .7.7 0 0 0-.24.09 1.13 1.13 0 0 0-.44.48 1.44 1.44 0 0 0-.11.79zM268.07 183.11a3.56 3.56 0 0 1-4.1-.45h-.06v-.12s1.1-3.53 3.34-4.78a3.58 3.58 0 0 1 4.14.45l.06.07v.11s-1.15 3.43-3.38 4.72zm-3.91-.65a3.25 3.25 0 0 0 1.87.8 3.36 3.36 0 0 0 2-.42c1.92-1.11 3-3.83 3.17-4.41a3.23 3.23 0 0 0-1.86-.83 3.33 3.33 0 0 0-2 .41c-1.93 1.09-2.97 3.84-3.18 4.45z" transform="translate(-5.55 -26.35)"/><path class="cls-5" d="M267.38 178.35a3.2 3.2 0 0 0-1.39 3c.16 1.14 1.05 1.64 2 1.1a3.23 3.23 0 0 0 1.39-3c-.19-1.14-1.08-1.64-2-1.1zm.44 3.06a.62.62 0 0 1-1-.53 1.58 1.58 0 0 1 .13-.83 1.64 1.64 0 0 1 .54-.63.62.62 0 0 1 1 .53 1.55 1.55 0 0 1-.11.82 1.65 1.65 0 0 1-.53.64z" transform="translate(-5.55 -26.35)"/><path d="m120.76 316.57 166.77-96.07c.69-.4 1.33-.12 1.43.61l2.83 19.68a2.17 2.17 0 0 1-.24 1.17 2.21 2.21 0 0 1-.82.87L124 338.9a.87.87 0 0 1-1.43-.61l-2.83-19.68a2.24 2.24 0 0 1 .25-1.16 2.09 2.09 0 0 1 .77-.88z" transform="translate(-5.55 -26.35)" class="cls-15"/><path class="cls-9" d="m286.35 225.65-161.59 93a2.52 2.52 0 0 0-.9 1 2.43 2.43 0 0 0-.27 1.29l2.52 17.46a3.08 3.08 0 0 0 1.76 2.11l3 1.26a4 4 0 0 0 1.49.23 3.75 3.75 0 0 0 1.47-.37l161.61-93a2.47 2.47 0 0 0 .9-1 2.39 2.39 0 0 0 .27-1.29l-2.51-17.45a3.06 3.06 0 0 0-.64-1.27 3.27 3.27 0 0 0-1.13-.85l-3-1.25a3.84 3.84 0 0 0-1.5-.24 3.76 3.76 0 0 0-1.48.37z" transform="translate(-5.55 -26.35)"/><path class="cls-17" d="M133.87 341.63a3.93 3.93 0 0 1-1.46.37 4 4 0 0 1-1.5-.23l-3-1.26a3 3 0 0 1-1.13-.85 3.08 3.08 0 0 1-.64-1.26l-2.51-17.46a2.24 2.24 0 0 1 .29-1.31l6.19 2.64a2.09 2.09 0 0 0-.26 1.27l2.5 17.46a.91.91 0 0 0 .19.45.89.89 0 0 0 .39.3.88.88 0 0 0 .48.07.93.93 0 0 0 .46-.19z" transform="translate(-5.55 -26.35)"/><g class="cls-15"><path class="cls-3" d="M294.07 228.67a1 1 0 0 0-1.53-.45L131 321.26a2.43 2.43 0 0 0-.89 1l-6.18-2.65a2.41 2.41 0 0 1 .88-.94l161.6-93a3.66 3.66 0 0 1 1.46-.37 4 4 0 0 1 1.49.23l3 1.26a3.19 3.19 0 0 1 1.08.77 3.38 3.38 0 0 1 .63 1.11z" transform="translate(-5.55 -26.35)"/></g><path class="cls-9" d="M292.54 228.22 131 321.26a2.4 2.4 0 0 0-1.16 2.25l.5 3.53 2 13.92c.12.8.83 1.1 1.59.67l161.58-93a2.47 2.47 0 0 0 .9-1 2.39 2.39 0 0 0 .27-1.29l-2.51-17.45c-.17-.8-.87-1.1-1.63-.67z" transform="translate(-5.55 -26.35)"/><path class="cls-3" d="M204.57 292.64a.2.2 0 0 1 .11 0h.12a.38.38 0 0 1 .09.09.56.56 0 0 1 0 .12l.14 1a.51.51 0 0 1 0 .32.56.56 0 0 1-.2.23l-5 2.83a.19.19 0 0 1-.12 0 .15.15 0 0 1-.11 0 .39.39 0 0 1-.1-.08.28.28 0 0 1 0-.13l-1.3-9a.59.59 0 0 1 .06-.32.63.63 0 0 1 .19-.24l.89-.52a.16.16 0 0 1 .12 0 .15.15 0 0 1 .11 0 .39.39 0 0 1 .1.08.28.28 0 0 1 0 .13l1.1 7.65zM207.65 284.73a3.11 3.11 0 0 1 1.17-.42 1.8 1.8 0 0 1 1 .16 1.83 1.83 0 0 1 .74.64 2.61 2.61 0 0 1 .42 1.05c0 .08 0 .18.06.31l.06.39.05.39a1.71 1.71 0 0 1 0 .32 5.22 5.22 0 0 1-1.32 3.82 4.22 4.22 0 0 1-1.09.88 2.93 2.93 0 0 1-1.17.41 1.76 1.76 0 0 1-1.7-.78 3.11 3.11 0 0 1-.43-1l-.06-.3a2.53 2.53 0 0 0-.07-.38v-.73a5.09 5.09 0 0 1 .09-1.35 6 6 0 0 1 .45-1.32 5.36 5.36 0 0 1 .78-1.16 4.91 4.91 0 0 1 1.02-.93zm1.83 2.35a1.55 1.55 0 0 0-.26-.62.81.81 0 0 0-.39-.27.9.9 0 0 0-.46 0 2.76 2.76 0 0 0-.47.2 3 3 0 0 0-.46.34 2.28 2.28 0 0 0-.39.48 2 2 0 0 0-.25.63 2.53 2.53 0 0 0-.07.82v.28a.9.9 0 0 0 .05.36c0 .11 0 .24.06.35a2 2 0 0 0 0 .26 1.63 1.63 0 0 0 .28.63.64.64 0 0 0 .38.26.72.72 0 0 0 .46 0 1.75 1.75 0 0 0 .47-.2 2.18 2.18 0 0 0 .45-.33 1.79 1.79 0 0 0 .39-.48 2.2 2.2 0 0 0 .32-1.45 1.31 1.31 0 0 0 0-.28v-.7a.45.45 0 0 1-.08-.28zM215.7 289.65a2.8 2.8 0 0 0 .48-.37 2.76 2.76 0 0 0 .68-1.24 2.55 2.55 0 0 0 0-.78l-.07-.52a3.17 3.17 0 0 1-.21.41 3.08 3.08 0 0 1-.32.48 4.24 4.24 0 0 1-.46.49 3 3 0 0 1-.61.44 2 2 0 0 1-1.07.33 1.63 1.63 0 0 1-.89-.27 2.19 2.19 0 0 1-.66-.76 3.2 3.2 0 0 1-.39-1.11 3.79 3.79 0 0 0-.08-.49 4.1 4.1 0 0 1-.06-.49 5.25 5.25 0 0 1 .36-2.7 4.92 4.92 0 0 1 .67-1.18 3.32 3.32 0 0 1 1-.88 3.15 3.15 0 0 1 .65-.29 2.25 2.25 0 0 1 .52-.07 1.34 1.34 0 0 1 .4.06 1.17 1.17 0 0 1 .27.15v-.33a.59.59 0 0 1 .06-.32.5.5 0 0 1 .2-.23l.88-.5a.26.26 0 0 1 .24 0 .2.2 0 0 1 .09.09.27.27 0 0 1 0 .12l.95 6.55a5 5 0 0 1-.41 3 4.9 4.9 0 0 1-2 2.09 3.6 3.6 0 0 1-1.1.43 2.13 2.13 0 0 1-.94 0 1.64 1.64 0 0 1-.68-.38 1.35 1.35 0 0 1-.35-.68.45.45 0 0 1 0-.32.61.61 0 0 1 .21-.24l.77-.44a.3.3 0 0 1 .3 0l.23.14a.74.74 0 0 0 .45.15 1.74 1.74 0 0 0 .89-.34zm-2.14-4.65a5 5 0 0 0 .1.78c.14.59.36.93.65 1a1.3 1.3 0 0 0 .52.05 1.07 1.07 0 0 0 .48-.2 2.16 2.16 0 0 0 .88-.94 2.75 2.75 0 0 0 .28-1.41 1.91 1.91 0 0 0-.06-.55c0-.21-.07-.39-.1-.52a1.22 1.22 0 0 0-.6-.88 1.15 1.15 0 0 0-.52-.07 1.18 1.18 0 0 0-.48.19 2.33 2.33 0 0 0-.89.95 3 3 0 0 0-.3 1.55zM219.73 275.05a.2.2 0 0 1 .11 0 .24.24 0 0 1 .12 0l.09.09a.27.27 0 0 1 0 .12l.16 1.1a.51.51 0 0 1-.05.32.47.47 0 0 1-.2.22l-1 .57a.2.2 0 0 1-.11 0h-.12l-.09-.09a.56.56 0 0 1 0-.12l-.16-1.1a.81.81 0 0 1 0-.31.61.61 0 0 1 .21-.24zm1.62 9.4a.7.7 0 0 1-.06.32.52.52 0 0 1-.2.24l-.88.49a.28.28 0 0 1-.12 0 .21.21 0 0 1-.11 0 .2.2 0 0 1-.09-.09.25.25 0 0 1 0-.12l-.93-6.52a.48.48 0 0 1 .05-.31.43.43 0 0 1 .19-.23l.89-.51a.2.2 0 0 1 .11 0 .27.27 0 0 1 .12 0 .38.38 0 0 1 .09.09.2.2 0 0 1 0 .13zM228.46 280.35a.51.51 0 0 1-.05.32.48.48 0 0 1-.2.24l-.89.49a.21.21 0 0 1-.12 0 .2.2 0 0 1-.11 0 .2.2 0 0 1-.09-.09.28.28 0 0 1 0-.12l-.51-3.53a1.75 1.75 0 0 0-.52-1.15c-.25-.21-.6-.2-1 .06a2 2 0 0 0-.88 1.05 3.1 3.1 0 0 0-.15 1.54l.51 3.53a.7.7 0 0 1-.05.32.61.61 0 0 1-.21.24l-.88.49a.2.2 0 0 1-.11 0 .24.24 0 0 1-.12 0 .2.2 0 0 1-.09-.09.28.28 0 0 1 0-.12L222 277a.59.59 0 0 1 .06-.32.47.47 0 0 1 .19-.23l.89-.5a.2.2 0 0 1 .11 0h.12l.09.09a.28.28 0 0 1 0 .12v.32a4.87 4.87 0 0 1 .61-1 3 3 0 0 1 .89-.78 2.48 2.48 0 0 1 1.19-.4 1.26 1.26 0 0 1 .88.28 1.73 1.73 0 0 1 .55.81 4.76 4.76 0 0 1 .3 1.18z" transform="translate(-5.55 -26.35)"/><path class="cls-13" d="m120.82 294.09 55.26-31.83-3.54-17.08c-1.37-4.93-4.18-8.3-7.73-9.81l-4.78-2c-3.53-1.49-7.81-1.14-12.13 1.35l-18.83 10.87c-8.68 5-14.9 17.06-14.61 28.31l1.54 18.17z" transform="translate(-5.55 -26.35)"/><path class="cls-12" d="M172.59 245.2c-1.37-4.93-4.19-8.3-7.74-9.81s-7.81-1.14-12.14 1.35l-18.86 10.86c-8.67 5-14.9 17.07-14.6 28.32l1.57 18.18 55.26-31.82z" transform="translate(-5.55 -26.35)"/><path class="cls-13" d="M148.92 199.28c3.35 1.42 5.76 4.66 6.44 9.38 1.35 9.43-4.74 21.23-13.62 26.34-4.42 2.56-8.72 3-12.07 1.54l-4.62-1.93c-3.35-1.41-5.75-4.65-6.43-9.37-1.36-9.44 4.74-21.24 13.61-26.35 4.42-2.56 8.73-2.95 12.08-1.53z" transform="translate(-5.55 -26.35)"/><path class="cls-12" d="M141.74 235c-4.42 2.56-8.72 3-12.07 1.54s-5.77-4.65-6.44-9.38c-1.36-9.44 4.74-21.24 13.61-26.35 4.42-2.55 8.72-2.95 12.08-1.53s5.76 4.66 6.44 9.38c1.35 9.43-4.74 21.23-13.62 26.34z" transform="translate(-5.55 -26.35)"/><path class="cls-14" d="M75.39 365.92H24L29.35 388c.4 2.64 2.36 5.29 5.9 7.29 8 4.6 20.93 4.6 28.91 0 3.81-2.19 5.78-5 6-7.94z" transform="translate(-5.55 -26.35)"/><path class="cls-13" d="M69.13 381a20.41 20.41 0 0 0 3.08-2.14l2.93-11.78a21 21 0 0 1-5.2 4.12c-10.83 6.23-28.19 6.39-39.39.51l1.31-5.29-.41-.56H24l5.31 22.05c.4 2.65 2.36 5.29 5.9 7.29 5.69 3.29 13.88 4.21 21 2.82-12.8.95-21.57-4.62-22.89-9.77-.53-2-1.44-6.59-1.44-6.59 10.76 5.47 27.04 5.25 37.25-.66z" transform="translate(-5.55 -26.35)"/><path class="cls-12" d="M78.06 359.39a10.65 10.65 0 0 1-1.71 4 18.89 18.89 0 0 1-6.44 5.71c-11.15 6.42-29.23 6.42-40.37 0a18.79 18.79 0 0 1-6.44-5.71 10.89 10.89 0 0 1-1.71-4c-1-4.84 1.77-9.86 8.16-13.57 11.14-6.42 29.22-6.42 40.37 0 6.41 3.71 9.14 8.74 8.14 13.57z" transform="translate(-5.55 -26.35)"/><path class="cls-14" d="M76.35 363.38a18.89 18.89 0 0 1-6.44 5.71c-11.15 6.42-29.23 6.42-40.36 0a18.82 18.82 0 0 1-6.45-5.71 10.89 10.89 0 0 1-1.71-4l1.27 8.68c.58 3.52 3.19 6.89 7.84 9.57 10.61 6.12 27.84 6.12 38.46 0 4.59-2.64 7.2-6 7.82-9.45l.07-.45 1.22-8.35a10.51 10.51 0 0 1-1.72 4z" transform="translate(-5.55 -26.35)"/><path class="cls-13" d="M66.55 347.76c-9.29-5.35-24.36-5.35-33.64 0-5.26 3-7.53 7.12-6.85 11.07.53 3 2.82 6 6.85 8.3 9.28 5.36 24.35 5.36 33.64 0 4-2.32 6.3-5.29 6.83-8.29.7-3.96-1.58-8.05-6.83-11.08z" transform="translate(-5.55 -26.35)"/><path class="cls-2" d="M27.63 362.5a16 16 0 0 0 5.31 4.63c9.28 5.36 24.34 5.36 33.63 0a15.87 15.87 0 0 0 5.31-4.63c-.07-3.21-2.22-6.39-6.46-8.82-8.64-5-22.63-5-31.25 0-4.32 2.43-6.46 5.62-6.54 8.82z" transform="translate(-5.55 -26.35)"/><path class="cls-9" d="M51.5 352.54c-4.27-1.15-5-10.38-2.6-20.11 2.33-9.48 9.77-23.69 11.35-23.37s3.54 15.75 2.45 25.94c-1.34 12.36-6.93 18.68-11.2 17.54z" transform="translate(-5.55 -26.35)"/><path class="cls-18" d="M51.5 352.54c-4.27-1.15-5-10.38-2.6-20.11 2.33-9.48 9.77-23.69 11.35-23.37s3.54 15.75 2.45 25.94c-1.34 12.36-6.93 18.68-11.2 17.54z" transform="translate(-5.55 -26.35)"/><path d="M53.58 322.72c.77 1.2 1.24 3.24 3 3.25 1.44 0 2.19-1.52 3.49-1.86a3.58 3.58 0 0 1 1.53.12 3.51 3.51 0 0 1 1.4.77v-1.11a4.37 4.37 0 0 0-2.48-.88 3.53 3.53 0 0 0-2.1.92c-.66.52-1.47 1.29-2.39.88s-1.34-1.77-1.87-2.6a3.19 3.19 0 0 0-1.1-1.15c-.12.25-.24.52-.35.78a2.39 2.39 0 0 1 .87.88zm5.07-3.81a6.35 6.35 0 0 0 1.44-1.35 2 2 0 0 1 1-.54 2 2 0 0 1 1.17.11h.07a6.45 6.45 0 0 0-.13-1 2.59 2.59 0 0 0-.4-.09 2.41 2.41 0 0 0-1.77.38c-.59.43-.88 1.15-1.55 1.52-1.11.67-2-.55-2.33-1.45-.15-.42-.27-.83-.4-1.25l-.34.65c.08.3.15.59.24.89.4 1.22 1.53 2.82 3 2.13zm-.15 12.34a10.19 10.19 0 0 1-2.33 1.53c-2.2.63-2.7-2.76-4.1-3.77a3 3 0 0 0-2-.52c-.09.27-.18.52-.26.78a2.64 2.64 0 0 1 1.12 0 2.84 2.84 0 0 1 1.15.64 2.92 2.92 0 0 1 .78 1.06c.69 1.26 1.59 3.06 3.35 2.71a5.59 5.59 0 0 0 2-1.17 3.77 3.77 0 0 1 1.39-.72 3.67 3.67 0 0 1 1.58-.08 4.18 4.18 0 0 1 1.68.88 6.77 6.77 0 0 1 .05-1 4.26 4.26 0 0 0-2-.88 3.82 3.82 0 0 0-2.43.52zm1.35 7.44a4.4 4.4 0 0 0-2.92.38c-1 .5-1.77 1.48-2.82 1.89-2.32.88-2.65-2.48-4.42-3.31a3.49 3.49 0 0 0-1.77-.34c0 .27-.08.53-.1.79a2.51 2.51 0 0 1 .67 0 3.18 3.18 0 0 1 1.44.61 3 3 0 0 1 1 1.24c.83 1.53 1.91 2.77 3.79 1.85 1-.48 1.77-1.4 2.76-1.84a3.22 3.22 0 0 1 1.78-.34 3.27 3.27 0 0 1 1.69.66 4.43 4.43 0 0 1 .64.79c.09-.33.17-.67.25-1a3.74 3.74 0 0 0-1.99-1.38z" transform="translate(-5.55 -26.35)" style="opacity:.5;fill:#ffcb3c;isolation:isolate"/><path class="cls-20" d="M51.5 352.54c4.27 1.15 9.86-5.18 11.2-17.54a71.88 71.88 0 0 0 .24-10.58c-3.48 2.85-7 8.69-7 8.69a92.59 92.59 0 0 0-4.15-9.33 64.16 64.16 0 0 0-2.91 8.65c-2.37 9.73-1.65 18.96 2.62 20.11z" transform="translate(-5.55 -26.35)"/><path class="cls-9" d="M48 357.65c-5.61 3.6-10.85-9.19-13.64-18.84s-1-34.89 1.86-36.28c2-1 12.61 21.63 14.69 32.63 1.53 7.98 1.58 19.63-2.91 22.49z" transform="translate(-5.55 -26.35)"/><path class="cls-17" d="M48 357.65c-5.61 3.6-10.85-9.19-13.64-18.84s-1-34.89 1.86-36.28c2-1 12.61 21.63 14.69 32.63 1.53 7.98 1.58 19.63-2.91 22.49z" transform="translate(-5.55 -26.35)"/><path class="cls-9" d="M35.91 320.36c1.77.88 3.16.88 4.53-.61s2.23-3.12 4.22-2.9l-.58-1.31a3.17 3.17 0 0 0-1 .09c-1.76.47-2.52 2.28-3.74 3.42-1.89 1.76-3.89-.55-6-.43h-.2v1.17a5.41 5.41 0 0 1 2.77.57zm15.43 17.37a6.41 6.41 0 0 0-.88-.27 3.43 3.43 0 0 0-1.39 0 3.23 3.23 0 0 0-1.26.58c-1.7 1.25-1.77 4-4.53 3.28-2.08-.54-3.65-1.92-5.85-.83a8 8 0 0 0-2.07 1.51l.32 1a6.36 6.36 0 0 1 2.74-1.69c2.36-.6 4.15 1.76 6.5 1.39 1.92-.31 2.13-2.42 3.46-3.45a2.92 2.92 0 0 1 1.53-.54 2.88 2.88 0 0 1 1.58.34c-.04-.46-.09-.89-.15-1.32zM36 311.2c.65.88 1.58 1.9 2.79 1.28s1.41-2.25 2.24-3.28l-.45-.88c-.82 1.09-1.22 3.45-2.78 3.36-1.22-.06-1.7-1.87-2.71-2.39a1.81 1.81 0 0 0-1-.19 5 5 0 0 1-.12.74h.24c.84.02 1.35.74 1.79 1.36zm4.22 19.15c2.22.48 3.31-2.15 4.31-3.61a6.5 6.5 0 0 1 3.07-2.6l-.44-1.14a4.51 4.51 0 0 0-1.16.43 7.56 7.56 0 0 0-2.4 2.44c-.67 1-1.22 2.33-2.25 3-1.19.77-2.59-.43-3.81-.66a6.63 6.63 0 0 0-3.42.28 5.85 5.85 0 0 0-1 .5c0 .55.05 1.09.09 1.62a5.25 5.25 0 0 1 3.6-1.21c1.26-.03 2.19.7 3.42.95z" transform="translate(-5.55 -26.35)"/><path class="cls-20" d="M48 325.16a32 32 0 0 0-4.55 7.43s-6.1-8.24-10.38-12c-.24 6.85.11 14 1.32 18.2 2.79 9.65 8 22.44 13.64 18.84 4.47-2.86 4.42-14.51 2.91-22.46A68.24 68.24 0 0 0 48 325.16z" transform="translate(-5.55 -26.35)"/><path class="cls-9" d="M47.64 364.27c-10.27.55-19.86-5.65-26.09-13.47s-11.08-24-9.68-25 18 9.2 24.2 16.55c8.13 9.65 11.57 21.92 11.57 21.92z" transform="translate(-5.55 -26.35)"/><path class="cls-18" d="M47.64 364.27c-10.27.55-19.86-5.65-26.09-13.47s-11.08-24-9.68-25 18 9.2 24.2 16.55c8.13 9.65 11.57 21.92 11.57 21.92z" transform="translate(-5.55 -26.35)"/><path class="cls-9" d="M25.23 338.57c.6-1 .26-2.13.12-3.17a2.9 2.9 0 0 1 .42-2l-1.16-.82a4.14 4.14 0 0 0-.42 2.78c.17 1.18.46 2.65-1.13 2.88-1.76.23-4.12-1.31-5.5.39-.67.83-.42 1.88-.44 2.85a2.75 2.75 0 0 1-.37 1.25c.19.39.37.77.57 1.16a3.59 3.59 0 0 0 .77-1.76c.14-1.19-.33-2.73 1.29-3 1.11-.18 2.18.33 3.29.41a2.65 2.65 0 0 0 1.42-.14 2.68 2.68 0 0 0 1.14-.83zM19.5 330a2.1 2.1 0 0 1 .45-.49L19 329c-.75 1-.75 2.34-1.51 3.32a1.75 1.75 0 0 1-.88.58 1.87 1.87 0 0 1-1 0 3.27 3.27 0 0 0-2.14.08 3.75 3.75 0 0 0-.44.24l.24.75a2.17 2.17 0 0 1 1.08-.3c.77 0 1.49.38 2.28.33a2 2 0 0 0 1.36-.7c.81-.98.86-2.3 1.51-3.3zm11.38 13.72a5 5 0 0 0 1.55-2.64 20.09 20.09 0 0 0 .27-2.17l-1-.89c-.22 1.21-.1 2.42-.72 3.53a3.18 3.18 0 0 1-1.34 1.33 3.32 3.32 0 0 1-1.86.34 3.34 3.34 0 0 0-2.74.88 5.12 5.12 0 0 0-1 2.75c-.22 1.42-.44 2.75-1.77 3.53a3.85 3.85 0 0 1-.71.34c.24.3.49.6.74.88a4.32 4.32 0 0 0 1.48-1.09c1.71-2 .32-6.07 4-6.07a4.43 4.43 0 0 0 3.1-.7zm5.51 1a5.74 5.74 0 0 1 .77-1.06c-.28-.37-.58-.74-.88-1.11a6.53 6.53 0 0 0-1.64 3.22 9.5 9.5 0 0 1-1.35 3.82c-.86 1.1-2.31 1-3.49 1.68a5 5 0 0 0-2.19 2.55 12 12 0 0 0-.55 2.58l1.09.88v-.15c.24-1.45.4-2.94 1.53-4s2.59-.88 3.74-1.68c2.25-1.51 1.86-4.45 2.97-6.68zm4.42 4.28a8.6 8.6 0 0 0-.83.77c-1.76 1.92-1.53 4.41-2.17 6.77a4.31 4.31 0 0 1-.75 1.71 4.17 4.17 0 0 1-1.43 1.21c-1 .4-2.09 0-2.94.78l-.09.1c.51.29 1 .56 1.54.82a4.4 4.4 0 0 1 .88-.1 3.84 3.84 0 0 0 1.6-.38 4.55 4.55 0 0 0 2-2.13c1.06-2.2.58-4.88 1.92-7a5.65 5.65 0 0 1 1.11-1.28c-.25-.43-.5-.86-.77-1.3z" transform="translate(-5.55 -26.35)"/><path class="cls-17" d="M24.51 332.51c1 8.5 5.55 31.32 23.13 31.76 0 0-3.41-12.25-11.57-21.89-2.65-3.15-7.14-6.78-11.56-9.87z" transform="translate(-5.55 -26.35)"/><path class="cls-9" d="M47.64 364.27c-8.08-1.18-15-6.28-18.56-21.46s-4.08-22.05-1.66-23.54c2.82-1.77 13.85 13.56 17.39 20.28 8.89 16.88 2.83 24.72 2.83 24.72z" transform="translate(-5.55 -26.35)"/><path class="cls-21" d="M32.66 336.18c2 .64 4.63 1.31 6.18-.68a18.82 18.82 0 0 0 1.45-3.3l-1.07-1.56c-.89 1.43-.89 3.53-2.43 4.36-1.17.62-2.56.21-3.74-.14a8.86 8.86 0 0 0-3.71-.56 5.42 5.42 0 0 0-1.94.68c.09.45.19.89.29 1.38a7.49 7.49 0 0 1 .81-.38 6.26 6.26 0 0 1 4.16.2zm-2.39-7.85a3.28 3.28 0 0 0 1.87.36c1.23-.26 1.87-1.44 2.5-2.4a5.28 5.28 0 0 1 .61-.8c-.24-.3-.5-.61-.75-.88l-.16.15c-.76.93-1.4 2.81-2.82 2.83a9.35 9.35 0 0 1-2-.58 4.79 4.79 0 0 0-1.77 0 4.27 4.27 0 0 0-1.61.61 8.8 8.8 0 0 0 .14 1.09 4.84 4.84 0 0 1 2.16-.67 4.33 4.33 0 0 1 1.83.29zm8.84 16.86a11.29 11.29 0 0 1 2.47-3.19 5.38 5.38 0 0 1 4.11-.73c-.27-.57-.55-1.13-.88-1.71a6.74 6.74 0 0 0-2.79.17A5.86 5.86 0 0 0 38.9 342a17.94 17.94 0 0 1-2.07 3c-1.65 1.5-3.86.19-5.7-.17a6.69 6.69 0 0 0-1.61-.13c.14.53.28 1 .43 1.55a7.21 7.21 0 0 1 2.12.32c2.79.86 5.17 1.36 7-1.31zm9.3 2.94-.41.13a6.28 6.28 0 0 0-2.73 2c-.79 1-1.2 2.24-1.94 3.27a2.57 2.57 0 0 1-1.4 1.15 2.62 2.62 0 0 1-1.81-.08 5.45 5.45 0 0 0-3.54-.26 5.82 5.82 0 0 0-2.24 1.4 9.83 9.83 0 0 0 .88 1.16 5 5 0 0 1 1.77-1 3.87 3.87 0 0 1 2.77.35 4.37 4.37 0 0 0 5.72-1.77c.69-1 1.09-2.21 1.87-3.16a4.44 4.44 0 0 1 1.55-1.2 17.66 17.66 0 0 0-.52-2z" transform="translate(-5.55 -26.35)"/><path class="cls-11" d="M44.8 339.57a38 38 0 0 0-2.57-4.41c-3.54 10.77-4.61 26.46 5.41 29 0 .11 6.06-7.73-2.84-24.59z" transform="translate(-5.55 -26.35)"/><path class="cls-9" d="M51.81 364.27c10.27.55 19.87-5.65 26.09-13.47s11.08-24 9.68-25-18 9.16-24.2 16.52c-8.16 9.68-11.57 21.95-11.57 21.95z" transform="translate(-5.55 -26.35)"/><path class="cls-18" d="M51.81 364.27c10.27.55 19.87-5.65 26.09-13.47s11.08-24 9.68-25-18 9.16-24.2 16.52c-8.16 9.68-11.57 21.95-11.57 21.95z" transform="translate(-5.55 -26.35)"/><path class="cls-9" d="M76.78 339.57c1.11-.08 2.18-.59 3.29-.41 1.61.25 1.14 1.76 1.29 3a3.59 3.59 0 0 0 .77 1.76c.2-.39.38-.77.57-1.16a2.75 2.75 0 0 1-.37-1.25c0-1 .23-2-.45-2.85-1.37-1.7-3.76-.16-5.49-.39s-1.3-1.7-1.14-2.88a4.13 4.13 0 0 0-.41-2.78l-1.16.82a3 3 0 0 1 .42 2c-.14 1-.48 2.2.12 3.17a2.68 2.68 0 0 0 1.14.86 2.65 2.65 0 0 0 1.42.11zm4.71-6.35a2 2 0 0 0 1.36.7c.79.05 1.5-.36 2.28-.34a2.28 2.28 0 0 1 1.08.3l.24-.75a3.75 3.75 0 0 0-.44-.24 3.34 3.34 0 0 0-2.14-.08 1.71 1.71 0 0 1-1.05 0 1.8 1.8 0 0 1-.88-.57c-.76-1-.76-2.34-1.52-3.33l-.89.57a1.87 1.87 0 0 1 .47.52c.62 1 .67 2.33 1.51 3.26zm-9.81 11.3c3.65 0 2.26 4 4 6.07a4.19 4.19 0 0 0 1.48 1.09l.74-.88a3.85 3.85 0 0 1-.71-.34c-1.33-.8-1.54-2.12-1.76-3.52a5.21 5.21 0 0 0-1-2.76 3.34 3.34 0 0 0-2.74-.88 3.32 3.32 0 0 1-1.86-.34 3.24 3.24 0 0 1-1.34-1.33c-.62-1.12-.5-2.33-.72-3.52l-1 .88a15.88 15.88 0 0 0 .27 2.17 5 5 0 0 0 1.55 2.64 4.43 4.43 0 0 0 3.09.72zm-5.69 7c1.17.82 2.65.67 3.74 1.69s1.31 2.55 1.54 4v.15l1.09-.88a11.87 11.87 0 0 0-.56-2.58 4.93 4.93 0 0 0-2.19-2.55c-1.18-.66-2.65-.53-3.53-1.68a9.31 9.31 0 0 1-1.34-3.82 6.53 6.53 0 0 0-1.64-3.22c-.3.37-.6.74-.88 1.11a5.69 5.69 0 0 1 .76 1.06c1.19 2.2.8 5.14 3.02 6.7zm-8.15-1.16a5.65 5.65 0 0 1 1.16 1.26c1.33 2.09.89 4.77 1.92 7a4.59 4.59 0 0 0 2 2.15 4.17 4.17 0 0 0 1.6.38 4.38 4.38 0 0 1 .88.09c.52-.25 1-.52 1.54-.82l-.08-.09c-.89-.77-2-.38-2.94-.78a4.14 4.14 0 0 1-2.18-2.93c-.65-2.35-.42-4.84-2.17-6.76a6.79 6.79 0 0 0-.84-.77c-.39.39-.64.82-.89 1.25z" transform="translate(-5.55 -26.35)"/><path class="cls-17" d="M74.94 332.51c-1 8.48-5.51 31.31-23.13 31.7 0 0 3.41-12.24 11.57-21.88 2.62-3.1 7.14-6.73 11.56-9.82z" transform="translate(-5.55 -26.35)"/><path class="cls-9" d="M51.81 364.27c8.08-1.18 15-6.28 18.57-21.46s4.11-22.05 1.66-23.54c-2.82-1.77-13.85 13.56-17.39 20.28-8.91 16.88-2.84 24.72-2.84 24.72z" transform="translate(-5.55 -26.35)"/><path class="cls-21" d="M71 336a8.67 8.67 0 0 1 .82.38c.09-.46.19-.93.28-1.38a5.29 5.29 0 0 0-1.94-.68 8.86 8.86 0 0 0-3.71.56c-1.18.35-2.56.76-3.74.14-1.55-.81-1.53-2.93-2.42-4.36-.36.53-.73 1-1.08 1.56a19.59 19.59 0 0 0 1.45 3.3c1.51 2 4.13 1.32 6.19.68A6.23 6.23 0 0 1 71 336zm0-8a4.88 4.88 0 0 1 2.17.67c0-.38.1-.74.13-1.09a4.25 4.25 0 0 0-1.62-.61 4.35 4.35 0 0 0-1.76 0 10.14 10.14 0 0 1-2 .58c-1.42 0-2.07-1.9-2.83-2.83l-.16-.15-.76.88a4.44 4.44 0 0 1 .63.8c.62 1 1.26 2.14 2.49 2.39a3.23 3.23 0 0 0 1.88-.36A4.53 4.53 0 0 1 71 328zm-3.67 18.5a7.23 7.23 0 0 1 2.13-.32c.15-.51.29-1 .43-1.55a6.69 6.69 0 0 0-1.61.13c-1.84.36-4.06 1.67-5.7.17a17 17 0 0 1-2.07-3 5.94 5.94 0 0 0-3-2.25 6.7 6.7 0 0 0-2.78-.17c-.31.58-.6 1.14-.89 1.71a5.41 5.41 0 0 1 4.12.73 11.29 11.29 0 0 1 2.47 3.21c1.82 2.67 4.21 2.17 6.95 1.31zm-16.8 3.61a4.46 4.46 0 0 1 1.67 1.28c.77.94 1.18 2.14 1.87 3.16a4.36 4.36 0 0 0 5.71 1.76 3.89 3.89 0 0 1 2.78-.34 5.1 5.1 0 0 1 1.77 1c.28-.37.56-.75.84-1.15a5.8 5.8 0 0 0-2.26-1.41 5.56 5.56 0 0 0-3.53.26 2.54 2.54 0 0 1-3.22-1.07c-.73-1-1.15-2.25-1.94-3.26a6.25 6.25 0 0 0-2.73-2l-.4-.12a19.3 19.3 0 0 0-.54 2z" transform="translate(-5.55 -26.35)"/><path class="cls-11" d="M54.65 339.57c.64-1.22 1.53-2.72 2.57-4.34 3.54 10.77 4.62 26.46-5.41 29 0 .04-6.07-7.8 2.84-24.66z" transform="translate(-5.55 -26.35)"/><path class="cls-9" d="M49.73 365.91c6.81 0 9.08-9.26 8.39-16.7s-5.4-21.62-8.39-21.62-7.72 14.17-8.4 21.62 1.58 16.7 8.4 16.7z" transform="translate(-5.55 -26.35)"/><path class="cls-22" d="M49.73 365.91c6.81 0 9.08-9.26 8.39-16.7s-5.4-21.62-8.39-21.62-7.72 14.17-8.4 21.62 1.58 16.7 8.4 16.7z" transform="translate(-5.55 -26.35)"/><path class="cls-21" d="M49.68 337.29a5.73 5.73 0 0 0 2.54-1.81 4.49 4.49 0 0 1 2.1-1.1 13.45 13.45 0 0 0-.53-1.27 6.44 6.44 0 0 0-2.87 1.76 3.9 3.9 0 0 1-1.42 1.06c-.83.29-1.33-.15-1.87-.69a4.5 4.5 0 0 0-2.24-1.34h-.07c-.14.35-.28.7-.42 1.08a4.16 4.16 0 0 1 2.38 1.33 2.57 2.57 0 0 0 1.07.82 2.62 2.62 0 0 0 1.33.16zm-5.08 8.15c2.27 1.77 4.15-.75 5.59-2.24 1.22-1.25 2.5-1.5 3.89-.35a8.89 8.89 0 0 0 2.59 1.87 4.15 4.15 0 0 0 .77.2c-.08-.43-.17-.89-.27-1.28a7.84 7.84 0 0 1-2.77-1.85c-2-1.66-3.85-1-5.46.89-.88 1.05-2.42 2.88-3.94 1.76-.89-.67-1.33-1.81-2.27-2.45l-.27 1.12c.86.54 1.3 1.67 2.14 2.33zm2.55 8.15c1.29 1.7 2.89 2.12 4.64.66.88-.71 1.4-1.72 2.33-2.35 1.29-.88 2.78-.42 4.11.11v-1.21a9 9 0 0 0-1.89-.59 3.71 3.71 0 0 0-1.52 0 4 4 0 0 0-1.41.6c-1 .69-1.55 1.76-2.49 2.47a2.23 2.23 0 0 1-.91.54 2.2 2.2 0 0 1-1 .08c-.78-.29-1.25-1.25-1.77-1.83a5.72 5.72 0 0 0-2.65-1.5 4.83 4.83 0 0 0-3.26.33v1.1a4.85 4.85 0 0 1 3.21-.27 4.8 4.8 0 0 1 2.61 1.86zm6.46 6.93a5.4 5.4 0 0 1-3.85 1.14 3 3 0 0 1-1.93-.88c-.38-.38-.65-.88-1-1.24a4.45 4.45 0 0 0-2.56-1.26 5 5 0 0 0-2.13.17c.11.42.25.82.39 1.22a3.6 3.6 0 0 1 1.75-.2 3.49 3.49 0 0 1 1.64.67c.81.61 1.21 1.6 2.08 2.17a4.94 4.94 0 0 0 2.65.69 6.3 6.3 0 0 0 2.83-.7c1-.52 1.67-1.4 2.65-1.95a4.63 4.63 0 0 1 .79-.35c.18-.5.35-1 .5-1.55a5.21 5.21 0 0 0-1 .21 9.54 9.54 0 0 0-2.81 1.86z" transform="translate(-5.55 -26.35)"/><path class="cls-9" d="M287.06 347.16c-12.78-7.3-33.47-7.22-46.2.17-5.3 3.1-8.68 5.18-9.52 9.19v4.16a13.13 13.13 0 0 0 4 9l-57.15 29v4.15l6.42 3.67 17.91-.06 7-4.09v-3.91l5.6-3.15 7.8-.72 3.1-1.76.29-7 5.76-3.34 8.46 1.88 11-6.38c11.85 2.79 26 1.39 35.61-4.2 6.38-3.71 9.55-8.55 9.52-13.38v-4.09c-.59-4.3-3.85-5.85-9.6-9.14zm-8 11.93a14.45 14.45 0 0 1-13.08.05c-3.62-2.07-3.63-5.45 0-7.54a14.41 14.41 0 0 1 13.08 0c3.63 2.06 3.64 5.44 0 7.53z" transform="translate(-5.55 -26.35)"/><path class="cls-17" d="M287.06 347.16c-12.78-7.3-33.47-7.22-46.2.17-5.3 3.1-8.68 5.18-9.52 9.19v4.16a13.13 13.13 0 0 0 4 9l-57.15 29v4.15l6.42 3.67 17.91-.06 7-4.09v-3.91l5.6-3.15 7.8-.72 3.1-1.76.29-7 5.76-3.34 8.46 1.88 11-6.38c11.85 2.79 26 1.39 35.61-4.2 6.38-3.71 9.55-8.55 9.52-13.38v-4.09c-.59-4.3-3.85-5.85-9.6-9.14zm-8 11.93a14.45 14.45 0 0 1-13.08.05c-3.62-2.07-3.63-5.45 0-7.54a14.41 14.41 0 0 1 13.08 0c3.63 2.06 3.64 5.44 0 7.53z" transform="translate(-5.55 -26.35)"/><path class="cls-9" d="M287 343c-12.78-7.3-33.47-7.23-46.2.17-10.45 6.07-12.27 15.19-5.5 22.31l-57.1 33.18 6.43 3.67 17.9-.06 7-4.08-.49-3.65 6.07-3.42 7.8-.71 3.11-1.77.29-6.95 5.75-3.35 8.46 1.87 11-6.37c11.9 2.77 26 1.37 35.61-4.21 12.74-7.39 12.7-19.31-.13-26.63zm-8 11.92a14.49 14.49 0 0 1-13 .08c-3.61-2.07-3.63-5.44 0-7.53a14.53 14.53 0 0 1 13.1-.06c3.62 2.08 3.64 5.44 0 7.54z" transform="translate(-5.55 -26.35)"/><path class="cls-22" d="M287 343c-12.78-7.3-33.47-7.23-46.2.17-10.45 6.07-12.27 15.19-5.5 22.31l-57.1 33.18 6.43 3.67 17.9-.06 7-4.08-.49-3.65 6.07-3.42 7.8-.71 3.11-1.77.29-6.95 5.75-3.35 8.46 1.87 11-6.37c11.9 2.77 26 1.37 35.61-4.21 12.74-7.39 12.7-19.31-.13-26.63zm-8 11.92a14.49 14.49 0 0 1-13 .08c-3.61-2.07-3.63-5.44 0-7.53a14.53 14.53 0 0 1 13.1-.06c3.62 2.08 3.64 5.44 0 7.54z" transform="translate(-5.55 -26.35)"/><g class="cls-15"><path class="cls-3" d="m231.44 357.73 32.21-5.07c-.88-1.76-.09-3.79 2.35-5.2a14.53 14.53 0 0 1 13.1-.06 5.62 5.62 0 0 1 2.42 2.45l11.75-1.85a23.27 23.27 0 0 0-6.23-5c-.37-.21-.77-.4-1.15-.6l-53 8.34a11.53 11.53 0 0 0-1.45 6.99zM294.84 362.5a11.45 11.45 0 0 0 .1-12.23l-13.39 2.1a5.44 5.44 0 0 1-2.43 2.54A14.43 14.43 0 0 1 266 355l-.18-.1-33.82 5.24a14.74 14.74 0 0 0 3.33 5.29l-15.14 8.82z" transform="translate(-5.55 -26.35)"/></g><path class="cls-9" d="M264.05 371.48c-8.08 0-15.62-1.76-21.22-4.94-4.89-2.79-7.71-6.45-7.72-10s2.77-7.26 7.65-10.09c5.6-3.25 13.13-5.05 21.22-5.09s15.62 1.77 21.22 4.94c4.89 2.8 7.71 6.46 7.72 10s-2.78 7.26-7.65 10.09c-5.62 3.26-13.15 5.06-21.22 5.09zm-.11-29c-7.87 0-15.19 1.76-20.61 4.93-4.51 2.64-7.07 5.92-7.07 9.06s2.61 6.44 7.13 9c5.45 3.11 12.78 4.8 20.65 4.78s15.2-1.77 20.62-4.93c4.5-2.65 7.07-5.92 7.07-9.07s-2.61-6.44-7.14-9c-5.44-3.08-12.78-4.77-20.65-4.74z" transform="translate(-5.55 -26.35)"/><path class="cls-20" d="M275.81 373.92v4.14a55.46 55.46 0 0 1-24.29-.08v-4.14a55.76 55.76 0 0 0 24.29.08zM240.55 380.2v4.16l-8.46-1.88v-4.15zM226.34 381.68v4.14l-.28 7v-4.14zM222.94 390.44v4.14l-7.81.72v-4.15zM202.54 402.29l-17.9.06v4.15l17.9-.07z" transform="translate(-5.55 -26.35)"/><path class="cls-11" d="M178.2 398.69v4.15l6.43 3.67v-4.15l-2.82-1.61v1.79l-1.56-.89v-1.81z" transform="translate(-5.55 -26.35)"/><path class="cls-9" d="m180.26 399.84 1.55.91v1.79l-1.56-.89z" transform="translate(-5.55 -26.35)"/><path class="cls-22" d="m180.26 399.84 1.55.91v1.79l-1.56-.89z" transform="translate(-5.55 -26.35)"/><path class="cls-9" d="M180.26 399.84v1.81l58.6-34-1.56-.91z" transform="translate(-5.55 -26.35)"/><path class="cls-11" d="M237.3 366.7v1.81l1.55-.9z" transform="translate(-5.55 -26.35)"/><path class="cls-9" d="m85.63 127.71 1.55-4.83c.84-3.89-15.08 5.29-15.91 9.17l5.13 13.78a2.27 2.27 0 0 0 .89 1c1.13.69 5.3 3 5.64 3.24a2.11 2.11 0 0 0 .94.32 2.2 2.2 0 0 0 1-.12 2.22 2.22 0 0 0 1.35-1.41l6.61-22.73c.4-1.93-3.27-.67-7.2 1.58z" transform="translate(-5.55 -26.35)"/><path class="cls-21" d="m85.63 127.71 1.55-4.83c.84-3.89-15.08 5.29-15.91 9.17l5.13 13.78a2.27 2.27 0 0 0 .89 1c1.13.69 5.3 3 5.64 3.24a2.11 2.11 0 0 0 .94.32 2.2 2.2 0 0 0 1-.12 2.22 2.22 0 0 0 1.35-1.41l6.61-22.73c.4-1.93-3.27-.67-7.2 1.58z" transform="translate(-5.55 -26.35)"/><path class="cls-9" d="M105.89 35.9 45.37 70.73a4.45 4.45 0 0 0-1.44 1.52 4.58 4.58 0 0 0-.61 2v71.55a4.43 4.43 0 0 0 2.06 3.53l3.74 2.11a4.58 4.58 0 0 0 2.05.49 4.52 4.52 0 0 0 2-.49l60.53-34.83a4.52 4.52 0 0 0 2-3.53V41.51a4.38 4.38 0 0 0-.59-2 4.49 4.49 0 0 0-1.37-1.51L110 35.87a4.6 4.6 0 0 0-2.06-.47 4.46 4.46 0 0 0-2.05.5z" transform="translate(-5.55 -26.35)"/><path class="cls-21" d="M105.89 35.9 45.37 70.73a4.45 4.45 0 0 0-1.44 1.52 4.58 4.58 0 0 0-.61 2v71.55a4.43 4.43 0 0 0 2.06 3.53l3.74 2.11a4.58 4.58 0 0 0 2.05.49 4.52 4.52 0 0 0 2-.49l60.53-34.83a4.52 4.52 0 0 0 2-3.53V41.51a4.38 4.38 0 0 0-.59-2 4.49 4.49 0 0 0-1.37-1.51L110 35.87a4.6 4.6 0 0 0-2.06-.47 4.46 4.46 0 0 0-2.05.5z" transform="translate(-5.55 -26.35)"/><path class="cls-9" d="M113.75 40.33 53.23 75.16a4.58 4.58 0 0 0-1.45 1.52 4.64 4.64 0 0 0-.6 2v71.56c0 1.3.89 1.82 2 1.17l24.54-14.11L82 149.06a2.26 2.26 0 0 0 .86 1 2.29 2.29 0 0 0 1.28.33 2.24 2.24 0 0 0 1.24-.46 2.21 2.21 0 0 0 .76-1.07l5.77-19.71 21.82-12.56a4.52 4.52 0 0 0 2-3.53V41.51c.07-1.31-.81-1.82-1.98-1.18z" transform="translate(-5.55 -26.35)"/><path d="M113.75 40.33 53.23 75.16a4.58 4.58 0 0 0-1.45 1.52 4.64 4.64 0 0 0-.6 2v71.56c0 1.3.89 1.82 2 1.17l24.54-14.11L82 149.06a2.26 2.26 0 0 0 .86 1 2.29 2.29 0 0 0 1.28.33 2.24 2.24 0 0 0 1.24-.46 2.21 2.21 0 0 0 .76-1.07l5.77-19.71 21.82-12.56a4.52 4.52 0 0 0 2-3.53V41.51c.07-1.31-.81-1.82-1.98-1.18z" transform="translate(-5.55 -26.35)" style="opacity:.4;fill:#fff;isolation:isolate"/><path d="M115.8 41.14c-.16-1-1-1.4-2-.81L53.23 75.16a4.21 4.21 0 0 0-1.45 1.57L44 72.23a4.05 4.05 0 0 1 1.42-1.46l60.47-34.87a4.55 4.55 0 0 1 4.11 0l3.74 2.1a4.35 4.35 0 0 1 1.37 1.33 4.41 4.41 0 0 1 .69 1.81z" transform="translate(-5.55 -26.35)" style="opacity:.7;fill:#fff;isolation:isolate"/><path class="cls-2" d="m94.2 81.51-2 1.13V74c0-6.4-3.91-9.35-8.72-6.58s-8.72 10.23-8.72 16.62v8.66l-2 1.14a7.44 7.44 0 0 0-3.16 6v23.76c0 1.94 1 3.05 2.45 2.64 7.51-2 15.31-6.51 22.83-13.15a7.12 7.12 0 0 0 1.76-2.48 7.4 7.4 0 0 0 .69-3V83.88c.01-2.31-1.4-3.38-3.13-2.37zm-8 29.41-5.57 3.21 1-8.82c-1-.25-1.65-1.3-1.65-3a8.27 8.27 0 0 1 3.45-6.59c1.9-1.1 3.47.07 3.47 2.64a8.81 8.81 0 0 1-1.61 4.78zm2.39-26.25L78.35 90.6V82c0-3.77 2.31-8.17 5.14-9.8s5.14.1 5.14 3.88z" transform="translate(-5.55 -26.35)"/><ellipse cx="348.59" cy="318.66" rx="57.37" ry="13.54" style="mix-blend-mode:multiply;fill:#b2b2b2;opacity:.58"/><path d="M346.91 325c-4.48 3.66-4.44 9.81-21.3 15a6.62 6.62 0 0 0-4.89 6.61s30.91.52 32.39-1.81-.7-11.33-2.91-13.3 1.22-7.2-3.29-6.5z" transform="translate(-5.55 -26.35)" style="fill:#5b4c49"/><path class="cls-27" d="M320.84 345.28c15.5 1.82 32.63-1.47 32.63-1.47l.17 2.26a.57.57 0 0 1-.52.56l-7.07.51-.65-.35s-19.45 1.63-24.62.69c0 0-.48-2.26.06-2.2z" transform="translate(-5.55 -26.35)"/><path d="M378.76 326.91c-4.48 3.66-4.88 10.73-21.26 15.35-5.39 1.52-4.87 6.35-4.87 6.35s30.85.44 32.33-1.89-.7-11.32-2.92-13.29 1.23-7.2-3.28-6.52z" transform="translate(-5.55 -26.35)" style="fill:#665551"/><path class="cls-27" d="M352.78 347c11.12 2.18 32.56-1.34 32.56-1.34l.12 2.12a.57.57 0 0 1-.53.57l-7.06.51-.65-.36s-22.55 2.22-24.51.7c0-.02-.47-2.33.07-2.2z" transform="translate(-5.55 -26.35)"/><path class="cls-29" d="M334 322.11s-.26 8.73-.36 11.94 26.38 6.15 26.3 3.12.35-11.59.35-11.59z" transform="translate(-5.55 -26.35)"/><path class="cls-30" d="M358 335.44c-.06-2.26.16-7.55.28-10.12l2 .26s-.44 8.55-.35 11.59-26.4.08-26.3-3.12v-.17c6.05 2.46 24.37 4.12 24.37 1.56z" transform="translate(-5.55 -26.35)"/><path class="cls-29" d="M360.15 323.48s1.33 9.21 1.81 12.6 28.83 1.61 28.18-1.56-1.75-12.22-1.75-12.22z" transform="translate(-5.55 -26.35)"/><path class="cls-30" d="M388.18 333.13c-.49-2.38-1.23-8.06-1.57-10.75l1.78-.08s1.1 9.05 1.75 12.22-27.69 4.94-28.18 1.56v-.21c6.42 1.63 26.77-.05 26.22-2.74z" transform="translate(-5.55 -26.35)"/><path class="cls-31" d="M305 195.13s1.63 4.54 8.46 5.22 8.87-2.61 8.87-2.61z" transform="translate(-5.55 -26.35)"/><path class="cls-29" d="m316.27 144.96-21.11 17.61 17.93 2.72 17.58-10.16-1.82-10.17h-12.58z"/><path class="cls-32" d="M336 80.82s-5.5 6-4.31 16.34c.85 7.38 5.67 17.24 5.43 20.21s3.72 4.78 3.72 4.78l8.54-1.39s-5.22-16.47-5.22-16.83S336 80.82 336 80.82z" transform="translate(-5.55 -26.35)"/><path style="fill:#e6b59e" d="m345.19 90.19.48 5.6 10.58-3.43-1.44-12.72-9.02 1.55-.6 9z"/><path class="cls-29" d="M332.19 122.21a18.42 18.42 0 0 0-3.47 3.81c-2.73 3.46-6.46 41.54-6.9 45.3s14.68 13.61 15.23 6.12-2.35-46.01-4.86-55.23z" transform="translate(-5.55 -26.35)"/><path d="M364.56 117.54s11.92 2 15.13 6.11 2.72 62.29 2.72 62.29 18.12 132.84 17.29 136.39c-1.76 7.57-81.32 11.19-82.54 1.83-2.33-17.82 15.72-133.5 15.72-133.5l-.69-68.45s5.68-4.39 17.69-5.67c1.75-.18.82 3.62 3.15 3.64 8.77.05 8.9-2.67 11.53-2.64z" transform="translate(-5.55 -26.35)" style="fill:#fcfcfc"/><path class="cls-30" d="M382.41 185.94s.15-56.21-2.07-60.82c-1.52-3.15-8.35-5.54-12.51-6.73 1.49 13.53 1.38 57.14 1.38 57.14s18.3 127.76 14 136.59c-2.55 5.25-43.34 9-66.26 6.35a41.7 41.7 0 0 0 .19 5.69c1.22 9.36 80.78 5.74 82.54-1.83.85-3.55-17.27-136.39-17.27-136.39z" transform="translate(-5.55 -26.35)"/><path class="cls-32" d="M337 116s-7.53 48.47-1.56 50.77c7 2.7 11.05-50.2 11.68-53.23-3.69-2.37-5 3-5 3z" transform="translate(-5.55 -26.35)"/><path class="cls-31" d="M359.67 103.86s-5.86 12.71-8.4 14.36-4.43 1.84-5.86 0-8.55-11.23-9.66-16.36-2.38-13.52 0-16.53 19.48-5.55 22.18-1.43 1.74 19.96 1.74 19.96z" transform="translate(-5.55 -26.35)"/><path class="cls-35" d="M356.27 111s-1.94 7.71-6.89 9.75-7.34-7.15-7.34-7.15a6.26 6.26 0 0 0 5.08 2.27c4.49-.38 9.15-4.87 9.15-4.87z" transform="translate(-5.55 -26.35)"/><path class="cls-35" d="M349.38 109.73s2.55 5.38 1.78 6c-1.58 1.32-1.78-.37-1.78-.37s-1.26-5.33-4-5.26c-4.95.12.06 5.18-.64 6.42-.46.81-2.72-2.93-2.72-2.93s-1.42-3.3-.29-5.16c.82-1.29 5.17-3.11 7.65 1.3z" transform="translate(-5.55 -26.35)"/><path class="cls-29" d="M377.16 121.3c17 7.15 4.33 56.39 2.5 62.72s-15.38 3.7-17.11-1.62 2-9.46 1.53-34.37c-.14-7.91 5.76-29.81 13.08-26.73z" transform="translate(-5.55 -26.35)"/><path style="fill:#383838" d="m322.89 173.75 26.59-11.97-36.65-4.32 10.06 16.29z"/><path class="cls-31" d="M344.6 179.77c-1.33-.16-11.6-2-14-1.64s-11.14 4.38-12.69 6.15 2 6.82 6.7 5.42 5.48-3.4 8.73-3 3.46 1.16 7.33.11a84.53 84.53 0 0 0 8.42-2.91z" transform="translate(-5.55 -26.35)"/><path style="fill:#292929" d="m284.01 136.5 2.43 30.75 36.05 7.34-2.33-34.14-36.15-3.95z"/><path style="fill:#555454" d="m284.01 136.5 1.93-.83 35.77 3.8-1.55.98-36.15-3.95z"/><path d="M306 180.23a2 2 0 1 0 1.45-2.69 2.17 2.17 0 0 0-1.45 2.69z" transform="translate(-5.55 -26.35)" style="opacity:.53;fill:#cfd1d2"/><path style="opacity:.37;fill:#cfd1d2;mix-blend-mode:multiply" d="m322.49 174.59-38.48-38.09 36.15 3.95 2.33 34.14z"/><path style="fill:#262626" d="m320.16 140.45 1.55-.98 2.1 33.28 25.67-10.99-.04 1.44-26.95 11.39-2.33-34.14z"/><path class="cls-29" d="m337.05 177.44 4.65 17.69s37-4.57 38-11.11c.44-3.05-4.88-3.28-5.89-6-1.19-3.21-2-8.24-5.16-8.31z" transform="translate(-5.55 -26.35)"/><path class="cls-30" d="M378 121.74c9.74 13.7-.44 53.27-2.06 58.9a2.42 2.42 0 0 1-.42 1 5.12 5.12 0 0 1-3 2.27c-7.43 3.81-25 6.57-31.81 7.52l1 3.75s25.29-3.18 34.58-7.94a5.13 5.13 0 0 0 3-2.27 2.34 2.34 0 0 0 .42-.95c1.76-6.22 13.99-53.86-1.71-62.28z" transform="translate(-5.55 -26.35)"/><path d="M334.1 91.41s4.28-1 7.21.42a51.76 51.76 0 0 1 10 7.26 13.35 13.35 0 0 0 4 2.4l-2.12-5.2-6.92-5.2s-4.51-2.34-5-2.51-7.21-.51-7.21-.51l-1 2.39z" transform="translate(-5.55 -26.35)" style="opacity:.53;fill:#d8d8d8;mix-blend-mode:multiply"/><path class="cls-32" d="M356.24 110.59s-6.78 56 0 57c8.05 1.19 8-46.08 12.38-47.35s-4.09-18.79-4.09-18.79z" transform="translate(-5.55 -26.35)"/><path class="cls-32" d="M333.94 92.38c.59-4.7 2-3 6.51-2.78 4.15.16 8.58 6.37 11.43 7.92s4.56 8.43 4.36 13.07 8.36 17.25 10 13.8c3.69-7.85 6.58-4.09 10-3.38-2.73-12.6-5.12-42.86-22.94-45.83s-21.11 11.57-19.36 17.2z" transform="translate(-5.55 -26.35)"/><path class="cls-43" d="M333.92 81.73c8 3 22.55 6.44 33.25 4.69 2.11-.34 2.12 2.67 1.16 3-7.92 2.26-28.13-1.08-35.5-4.79-1.56-.84.17-3.26 1.09-2.9z" transform="translate(-5.55 -26.35)"/><path class="cls-43" d="M335.92 78.46c7.79 2.54 20.08 5.29 30.28 4.66 2-.12 1.94 2.46 1.06 2.72-6.51 1.93-24.64-1.44-32.31-4.37-1.55-.59-.14-3.36.97-3.01z" transform="translate(-5.55 -26.35)"/><path class="cls-32" d="M350.27 132.17c-.12.74-.62 1.27-1.11 1.18s-.79-.74-.67-1.48.63-1.27 1.12-1.19.79.75.66 1.49zM350 141.93c-.12.74-.62 1.27-1.11 1.19s-.79-.75-.67-1.49.62-1.27 1.12-1.18.74.74.66 1.48zM349.63 151.7c-.12.73-.62 1.26-1.12 1.18s-.79-.75-.66-1.49.62-1.26 1.12-1.18.79.79.66 1.49z" transform="translate(-5.55 -26.35)"/></g></g></svg>